<?xml version="1.0" encoding="utf-8"?>
<!-- Generator: Adobe Illustrator 27.5.0, SVG Export Plug-In . SVG Version: 6.00 Build 0)  -->
<svg version="1.1" id="PRINT" xmlns="http://www.w3.org/2000/svg" xmlns:xlink="http://www.w3.org/1999/xlink" x="0px" y="0px"
	 viewBox="0 0 198.425 340.157" style="enable-background:new 0 0 198.425 340.157;" xml:space="preserve">
<g>
	
		<rect x="-79.37" y="62.362" transform="matrix(-1.836970e-16 1 -1 -1.836970e-16 269.2913 70.8661)" style="fill:#FFFFFF;" width="357.165" height="215.433"/>
	
		<rect x="-62.362" y="79.37" transform="matrix(-1.836970e-16 1 -1 -1.836970e-16 269.2913 70.8661)" style="fill:#C1CFD8;stroke:#3C3930;stroke-width:0.75;stroke-linecap:round;stroke-linejoin:round;stroke-miterlimit:10;" width="323.149" height="181.417"/>
	<g>
		
			<path style="fill:#FDECDC;stroke:#3C3930;stroke-width:0.75;stroke-linecap:round;stroke-linejoin:round;stroke-miterlimit:10;" d="
			M118.466,8.504c0,10.634-8.62,19.254-19.254,19.254c-10.634,0-19.254-8.62-19.254-19.254H118.466z"/>
		
			<rect x="8.504" y="306.874" style="fill:#FDECDC;stroke:#3C3930;stroke-width:0.75;stroke-linecap:round;stroke-linejoin:round;stroke-miterlimit:10;" width="181.417" height="24.78"/>
	</g>
</g>
<g>
	<path style="fill:none;stroke:#FDECDC;stroke-width:0.75;stroke-linecap:round;stroke-linejoin:round;stroke-miterlimit:10;" d="
		M125.786,34.183c-1.496-0.156-2.83-0.444-4.178-1.111c0.132,1.827,0.394,3.645,0.784,5.435
		C123.712,36.998,124.465,35.693,125.786,34.183z"/>
	<path style="fill:none;stroke:#FDECDC;stroke-width:0.75;stroke-linecap:round;stroke-linejoin:round;stroke-miterlimit:10;" d="
		M141.72,70.338c-1.496-0.156-2.831-0.444-4.178-1.111c0.132,1.827,0.394,3.645,0.784,5.435
		C139.647,73.152,140.399,71.847,141.72,70.338z"/>
	<path style="fill:none;stroke:#FDECDC;stroke-width:0.75;stroke-linecap:round;stroke-linejoin:round;stroke-miterlimit:10;" d="
		M168.357,34.853c-1.496-0.156-2.83-0.444-4.178-1.111c0.132,1.827,0.394,3.645,0.784,5.435
		C166.283,37.668,167.036,36.362,168.357,34.853z"/>
	<path style="fill:none;stroke:#FDECDC;stroke-width:0.75;stroke-linecap:round;stroke-linejoin:round;stroke-miterlimit:10;" d="
		M33.337,255.319c-1.496-0.156-2.83-0.443-4.178-1.111c0.132,1.827,0.394,3.645,0.784,5.435
		C31.264,258.134,32.016,256.828,33.337,255.319z"/>
	<path style="fill:none;stroke:#FDECDC;stroke-width:0.75;stroke-linecap:round;stroke-linejoin:round;stroke-miterlimit:10;" d="
		M171.71,243.963c-1.496-0.156-2.83-0.443-4.178-1.111c0.132,1.827,0.394,3.645,0.784,5.435
		C169.636,246.778,170.389,245.472,171.71,243.963z"/>
	<path style="fill:none;stroke:#FDECDC;stroke-width:0.75;stroke-linecap:round;stroke-linejoin:round;stroke-miterlimit:10;" d="
		M163.769,280.184c-1.496-0.156-2.83-0.444-4.178-1.111c0.132,1.827,0.394,3.645,0.784,5.435
		C161.695,282.999,162.448,281.693,163.769,280.184z"/>
	<path style="fill:none;stroke:#FDECDC;stroke-width:0.75;stroke-linecap:round;stroke-linejoin:round;stroke-miterlimit:10;" d="
		M172.653,200.494c-1.496-0.156-2.83-0.444-4.178-1.111c0.132,1.827,0.394,3.645,0.784,5.435
		C170.579,203.309,171.332,202.003,172.653,200.494z"/>
	<path style="fill:none;stroke:#FDECDC;stroke-width:0.75;stroke-linecap:round;stroke-linejoin:round;stroke-miterlimit:10;" d="
		M100.232,132.979c-1.496-0.156-2.831-0.443-4.178-1.111c0.132,1.827,0.394,3.645,0.784,5.435
		C98.159,135.794,98.911,134.489,100.232,132.979z"/>
	<path style="fill:none;stroke:#FDECDC;stroke-width:0.75;stroke-linecap:round;stroke-linejoin:round;stroke-miterlimit:10;" d="
		M81.708,32.61c-1.496-0.156-2.83-0.444-4.179-1.111c0.132,1.827,0.394,3.645,0.784,5.435C79.634,35.424,80.387,34.119,81.708,32.61
		z"/>
	<path style="fill:none;stroke:#FDECDC;stroke-width:0.75;stroke-linecap:round;stroke-linejoin:round;stroke-miterlimit:10;" d="
		M81.474,279.665c-1.496-0.156-2.83-0.443-4.178-1.111c0.132,1.827,0.394,3.645,0.784,5.435
		C79.4,282.48,80.153,281.174,81.474,279.665z"/>
	<path style="fill:none;stroke:#FDECDC;stroke-width:0.75;stroke-linecap:round;stroke-linejoin:round;stroke-miterlimit:10;" d="
		M139.258,184.473c-1.496-0.156-2.83-0.443-4.178-1.111c0.132,1.827,0.394,3.645,0.784,5.435
		C137.185,187.288,137.937,185.982,139.258,184.473z"/>
	<path style="fill:none;stroke:#FDECDC;stroke-width:0.75;stroke-linecap:round;stroke-linejoin:round;stroke-miterlimit:10;" d="
		M35.224,114.154c-1.496-0.156-2.83-0.444-4.178-1.111c0.132,1.827,0.394,3.645,0.784,5.435
		C33.15,116.968,33.903,115.663,35.224,114.154z"/>
	<path style="fill:none;stroke:#FDECDC;stroke-width:0.75;stroke-linecap:round;stroke-linejoin:round;stroke-miterlimit:10;" d="
		M124.283,103.297c-1.496-0.156-2.83-0.444-4.178-1.111c0.132,1.827,0.394,3.645,0.784,5.435
		C122.209,106.112,122.962,104.806,124.283,103.297z"/>
	<path style="fill:none;stroke:#FDECDC;stroke-width:0.75;stroke-linecap:round;stroke-linejoin:round;stroke-miterlimit:10;" d="
		M139.39,227.305c-1.496-0.156-2.83-0.443-4.178-1.111c0.132,1.827,0.394,3.645,0.784,5.435
		C137.317,230.12,138.069,228.815,139.39,227.305z"/>
	<path style="fill:none;stroke:#FDECDC;stroke-width:0.75;stroke-linecap:round;stroke-linejoin:round;stroke-miterlimit:10;" d="
		M120.312,264.751c-1.496-0.156-2.83-0.444-4.178-1.111c0.132,1.827,0.394,3.645,0.784,5.435
		C118.238,267.566,118.991,266.26,120.312,264.751z"/>
	<path style="fill:none;stroke:#FDECDC;stroke-width:0.75;stroke-linecap:round;stroke-linejoin:round;stroke-miterlimit:10;" d="
		M102.445,69.384c-1.496-0.156-2.83-0.443-4.178-1.111c0.132,1.827,0.394,3.645,0.784,5.435
		C100.371,72.199,101.124,70.893,102.445,69.384z"/>
	<path style="fill:none;stroke:#FDECDC;stroke-width:0.75;stroke-linecap:round;stroke-linejoin:round;stroke-miterlimit:10;" d="
		M67.767,150.739c-1.496-0.156-2.83-0.443-4.178-1.111c0.132,1.827,0.394,3.645,0.784,5.435
		C65.693,153.554,66.446,152.249,67.767,150.739z"/>
	<path style="fill:none;stroke:#FDECDC;stroke-width:0.75;stroke-linecap:round;stroke-linejoin:round;stroke-miterlimit:10;" d="
		M73.819,241.22c-1.496-0.156-2.83-0.443-4.178-1.111c0.132,1.827,0.394,3.645,0.784,5.435
		C71.745,244.035,72.498,242.729,73.819,241.22z"/>
	<path style="fill:none;stroke:#FDECDC;stroke-width:0.75;stroke-linecap:round;stroke-linejoin:round;stroke-miterlimit:10;" d="
		M30.348,76.555c-1.496-0.156-2.831-0.444-4.179-1.111c0.132,1.827,0.394,3.645,0.784,5.435
		C28.275,79.37,29.027,78.064,30.348,76.555z"/>
	<path style="fill:none;stroke:#FDECDC;stroke-width:0.75;stroke-linecap:round;stroke-linejoin:round;stroke-miterlimit:10;" d="
		M34.931,220.655c-1.496-0.156-2.83-0.443-4.178-1.111c0.132,1.827,0.394,3.645,0.784,5.435
		C32.857,223.47,33.61,222.164,34.931,220.655z"/>
	<path style="fill:none;stroke:#FDECDC;stroke-width:0.75;stroke-linecap:round;stroke-linejoin:round;stroke-miterlimit:10;" d="
		M31.376,149.848c-1.496-0.156-2.83-0.443-4.178-1.111c0.132,1.827,0.394,3.645,0.784,5.435
		C29.303,152.663,30.055,151.357,31.376,149.848z"/>
	<path style="fill:none;stroke:#FDECDC;stroke-width:0.75;stroke-linecap:round;stroke-linejoin:round;stroke-miterlimit:10;" d="
		M104.649,217.587c-1.496-0.156-2.83-0.443-4.178-1.111c0.132,1.827,0.394,3.645,0.784,5.435
		C102.575,220.402,103.328,219.096,104.649,217.587z"/>
	<path style="fill:none;stroke:#FDECDC;stroke-width:0.75;stroke-linecap:round;stroke-linejoin:round;stroke-miterlimit:10;" d="
		M32.348,185.257c-1.496-0.156-2.83-0.443-4.178-1.111c0.132,1.827,0.394,3.645,0.784,5.435
		C30.274,188.072,31.027,186.766,32.348,185.257z"/>
	<path style="fill:none;stroke:#FDECDC;stroke-width:0.75;stroke-linecap:round;stroke-linejoin:round;stroke-miterlimit:10;" d="
		M34.687,35.111c-1.496-0.156-2.83-0.444-4.178-1.111c0.132,1.827,0.394,3.645,0.784,5.435
		C32.613,37.926,33.366,36.621,34.687,35.111z"/>
	<path style="fill:none;stroke:#FDECDC;stroke-width:0.75;stroke-linecap:round;stroke-linejoin:round;stroke-miterlimit:10;" d="
		M172.239,156.133c-1.496-0.156-2.831-0.444-4.178-1.111c0.132,1.827,0.394,3.645,0.784,5.435
		C170.166,158.948,170.918,157.642,172.239,156.133z"/>
	<path style="fill:none;stroke:#FDECDC;stroke-width:0.75;stroke-linecap:round;stroke-linejoin:round;stroke-miterlimit:10;" d="
		M64.277,65.516c-1.496-0.156-2.83-0.443-4.178-1.111c0.132,1.827,0.394,3.645,0.784,5.435
		C62.204,68.331,62.956,67.025,64.277,65.516z"/>
	<path style="fill:none;stroke:#FDECDC;stroke-width:0.75;stroke-linecap:round;stroke-linejoin:round;stroke-miterlimit:10;" d="
		M75.212,103.764c-1.496-0.156-2.83-0.444-4.178-1.111c0.132,1.827,0.394,3.645,0.784,5.435
		C73.138,106.578,73.891,105.273,75.212,103.764z"/>
	<path style="fill:none;stroke:#FDECDC;stroke-width:0.75;stroke-linecap:round;stroke-linejoin:round;stroke-miterlimit:10;" d="
		M104.305,173.376c-1.496-0.156-2.83-0.443-4.178-1.111c0.132,1.827,0.394,3.645,0.784,5.435
		C102.231,176.191,102.984,174.885,104.305,173.376z"/>
	<path style="fill:none;stroke:#FDECDC;stroke-width:0.75;stroke-linecap:round;stroke-linejoin:round;stroke-miterlimit:10;" d="
		M168.313,113.208c-1.496-0.156-2.83-0.443-4.178-1.111c0.132,1.827,0.394,3.645,0.784,5.435
		C166.24,116.023,166.992,114.717,168.313,113.208z"/>
	<path style="fill:none;stroke:#FDECDC;stroke-width:0.75;stroke-linecap:round;stroke-linejoin:round;stroke-miterlimit:10;" d="
		M37.188,287.422c-1.496-0.156-2.83-0.444-4.178-1.111c0.132,1.827,0.394,3.645,0.784,5.435
		C35.115,290.237,35.867,288.931,37.188,287.422z"/>
	<path style="fill:none;stroke:#FDECDC;stroke-width:0.75;stroke-linecap:round;stroke-linejoin:round;stroke-miterlimit:10;" d="
		M70.313,195.163c-1.496-0.156-2.83-0.444-4.178-1.111c0.132,1.827,0.394,3.645,0.784,5.435
		C68.239,197.978,68.992,196.673,70.313,195.163z"/>
	<path style="fill:none;stroke:#FDECDC;stroke-width:0.75;stroke-linecap:round;stroke-linejoin:round;stroke-miterlimit:10;" d="
		M137.135,142.055c-1.496-0.156-2.831-0.444-4.179-1.111c0.132,1.827,0.394,3.645,0.784,5.435
		C135.061,144.87,135.814,143.564,137.135,142.055z"/>
	<path style="fill:none;stroke:#FDECDC;stroke-width:0.75;stroke-linecap:round;stroke-linejoin:round;stroke-miterlimit:10;" d="
		M174.369,74.172c-1.496-0.156-2.83-0.443-4.178-1.111c0.132,1.827,0.394,3.645,0.784,5.435
		C172.296,76.987,173.048,75.681,174.369,74.172z"/>
</g>
<g>
	
		<path style="fill:#FFC259;stroke:#3C3930;stroke-width:0.75;stroke-linecap:round;stroke-linejoin:round;stroke-miterlimit:10;" d="
		M174.145,28.858c-0.538,1.895-0.721,3.89-0.538,5.852c5.065-5.003,1.039-7.778,7.356,8.972c0.235-8.833,0.289-17.672,0.162-26.507
		c-0.1-0.03-16.039-0.491-25.599-0.195c14.422,5.661,10.203,3.09,5.504,9.221c2.366-0.157,4.529-1.71,6.897-1.577
		c-0.942,3.046-2.849,7.64-3.298,10.309C167.727,32.61,171.048,31.18,174.145,28.858z"/>
	
		<path style="fill:#FFC259;stroke:#3C3930;stroke-width:0.75;stroke-linecap:round;stroke-linejoin:round;stroke-miterlimit:10;" d="
		M24.28,28.858c0.538,1.895,0.721,3.89,0.538,5.852c-5.065-5.003-1.039-7.778-7.356,8.972c-0.235-8.833-0.289-17.672-0.162-26.507
		c0.1-0.03,16.039-0.491,25.599-0.195c-14.422,5.661-10.203,3.09-5.504,9.221c-2.366-0.157-4.529-1.71-6.897-1.577
		c0.942,3.046,2.849,7.64,3.297,10.309C30.698,32.61,27.377,31.18,24.28,28.858z"/>
	
		<path style="fill:#FFC259;stroke:#3C3930;stroke-width:0.75;stroke-linecap:round;stroke-linejoin:round;stroke-miterlimit:10;" d="
		M24.28,285.595c0.538-1.895,0.721-3.89,0.538-5.852c-5.065,5.003-1.039,7.779-7.356-8.972c-0.235,8.833-0.289,17.672-0.162,26.507
		c0.1,0.03,16.039,0.491,25.599,0.195c-14.422-5.661-10.203-3.09-5.504-9.221c-2.366,0.157-4.529,1.71-6.897,1.577
		c0.942-3.046,2.849-7.64,3.297-10.309C30.698,281.844,27.377,283.273,24.28,285.595z"/>
	
		<path style="fill:#FFC259;stroke:#3C3930;stroke-width:0.75;stroke-linecap:round;stroke-linejoin:round;stroke-miterlimit:10;" d="
		M174.145,285.595c-0.538-1.895-0.721-3.89-0.538-5.852c5.065,5.003,1.039,7.779,7.356-8.972c0.235,8.833,0.289,17.672,0.162,26.507
		c-0.1,0.03-16.039,0.491-25.599,0.195c14.422-5.661,10.203-3.09,5.504-9.221c2.366,0.157,4.529,1.71,6.897,1.577
		c-0.942-3.046-2.849-7.64-3.298-10.309C167.727,281.844,171.048,283.273,174.145,285.595z"/>
</g>
<g>
	<g>
		<g>
			
				<path style="fill:#FDECDC;stroke:#3C3930;stroke-width:0.75;stroke-linecap:round;stroke-linejoin:round;stroke-miterlimit:10;" d="
				M151.971,116.894c1.404-1.242,3.92,0.102,5.373-1.082c3.947-3.215-6.005-9.408-14.002-10.14c4.409-1.025,4.486-0.981,4.873-1.374
				c3.143-3.191-9.99-5.811-14.748-5.793c1.496-1.475,5.609-1.332,5.551-3.998c-0.089-4.122-12.072-5.219-18.517-4.97
				c-22.595,0.872-15.829,0.092-10.3,9.056C142.507,150.971,197.732,135.327,151.971,116.894z"/>
			<path style="fill:none;stroke:#3C3930;stroke-width:0.75;stroke-linecap:round;stroke-linejoin:round;stroke-miterlimit:10;" d="
				M134.634,113.972c6.414,0.36,11.025,1.728,17.337,2.922"/>
			<path style="fill:none;stroke:#3C3930;stroke-width:0.75;stroke-linecap:round;stroke-linejoin:round;stroke-miterlimit:10;" d="
				M127.144,107.516c4.923-2.246,11.091-3.118,16.198-1.844"/>
			<path style="fill:none;stroke:#3C3930;stroke-width:0.75;stroke-linecap:round;stroke-linejoin:round;stroke-miterlimit:10;" d="
				M121.839,99.079c4.39-1.189,7.08-0.605,11.628-0.575"/>
		</g>
		<g>
			
				<path style="fill:#FDECDC;stroke:#3C3930;stroke-width:0.75;stroke-linecap:round;stroke-linejoin:round;stroke-miterlimit:10;" d="
				M46.454,116.894c-1.404-1.242-3.92,0.102-5.373-1.082c-3.947-3.215,6.005-9.408,14.002-10.14
				c-4.409-1.025-4.486-0.981-4.873-1.374c-3.143-3.191,9.99-5.811,14.748-5.793c-1.496-1.475-5.609-1.332-5.551-3.998
				c0.089-4.122,12.072-5.219,18.517-4.97c22.595,0.872,15.829,0.092,10.3,9.056C55.919,150.971,0.693,135.327,46.454,116.894z"/>
			<path style="fill:none;stroke:#3C3930;stroke-width:0.75;stroke-linecap:round;stroke-linejoin:round;stroke-miterlimit:10;" d="
				M63.791,113.972c-6.414,0.36-11.025,1.728-17.337,2.922"/>
			<path style="fill:none;stroke:#3C3930;stroke-width:0.75;stroke-linecap:round;stroke-linejoin:round;stroke-miterlimit:10;" d="
				M71.282,107.516c-4.923-2.246-11.092-3.118-16.198-1.844"/>
			<path style="fill:none;stroke:#3C3930;stroke-width:0.75;stroke-linecap:round;stroke-linejoin:round;stroke-miterlimit:10;" d="
				M76.586,99.079c-4.39-1.189-7.08-0.605-11.628-0.575"/>
		</g>
	</g>
	<g>
		
			<path style="fill:#7E978A;stroke:#3C3930;stroke-width:0.75;stroke-linecap:round;stroke-linejoin:round;stroke-miterlimit:10;" d="
			M99.213,216.242c8.133-10.693,6.217-8.4,6.339-8.282c-1.557-1.509-0.211-109.885-0.25-109.99
			c-0.788-2.103-3.439-3.154-6.089-3.154c-2.65,0-5.3,1.051-6.089,3.154c-0.039,0.104,1.307,108.481-0.25,109.99
			C92.995,207.842,91.079,205.548,99.213,216.242z"/>
		
			<path style="fill:#C17B34;stroke:#3C3930;stroke-width:0.75;stroke-linecap:round;stroke-linejoin:round;stroke-miterlimit:10;" d="
			M99.213,98.788c11.066,0.069,16.135-3.36,19.491,0.128c5.464,5.677,7.902-4.766-0.352-7.542
			c-11.322-3.808-16.419,7.705-15.883-27.191c-1.296-0.29-2.276-0.435-3.257-0.435c-0.981,0-1.961,0.145-3.257,0.435
			c0.536,34.896-4.561,23.383-15.883,27.191c-8.254,2.776-5.816,13.22-0.352,7.542C83.078,95.428,88.146,98.857,99.213,98.788z"/>
		
			<path style="fill:#FFC259;stroke:#3C3930;stroke-width:0.75;stroke-linecap:round;stroke-linejoin:round;stroke-miterlimit:10;" d="
			M99.213,94.73c3.39-0.619,3.286-5.183,0-5.738C95.927,89.547,95.823,94.111,99.213,94.73z"/>
		
			<path style="fill:#E28E40;stroke:#3C3930;stroke-width:0.75;stroke-linecap:round;stroke-linejoin:round;stroke-miterlimit:10;" d="
			M99.213,64.395c3.853,0,7.706,0.135,8.419,0.406c6.347,2.412,6.548-8.408-7.99-6.929c-0.205,0.021-0.317,0.031-0.429,0.031
			s-0.225-0.01-0.429-0.031c-14.538-1.479-14.337,9.342-7.99,6.929C91.506,64.53,95.359,64.395,99.213,64.395z"/>
		
			<path style="fill:#FFC259;stroke:#3C3930;stroke-width:0.75;stroke-linecap:round;stroke-linejoin:round;stroke-miterlimit:10;" d="
			M99.213,56.647c2.968,0,5.937,0.274,6.485,0.821c0.788,0.788,0.211,5.475,0.069,6.555c-0.19,1.449-0.21,1.757-6.554,1.757
			c-6.344,0-6.364-0.308-6.554-1.757c-0.142-1.08-0.719-5.767,0.069-6.555C93.275,56.921,96.244,56.647,99.213,56.647z"/>
		
			<path style="fill:#F0433D;stroke:#3C3930;stroke-width:0.75;stroke-linecap:round;stroke-linejoin:round;stroke-miterlimit:10;" d="
			M99.213,62.727c5.216-0.317,4.145-3.606,0-3.588C95.067,59.121,93.996,62.41,99.213,62.727z"/>
		<path style="fill:none;stroke:#3C3930;stroke-width:0.75;stroke-linecap:round;stroke-linejoin:round;stroke-miterlimit:10;" d="
			M99.191,203.993c0.06-33.865,0.119-67.729,0.179-101.593"/>
		<g>
			<path style="fill:none;stroke:#3C3930;stroke-width:0.75;stroke-linecap:round;stroke-linejoin:round;stroke-miterlimit:10;" d="
				M94.822,85.057c2.129,2.193,6.578,1.583,8.876,0.367"/>
			<path style="fill:none;stroke:#3C3930;stroke-width:0.75;stroke-linecap:round;stroke-linejoin:round;stroke-miterlimit:10;" d="
				M95.452,81.418c2.287,1.745,5.091,1.46,7.631,0.86"/>
			<path style="fill:none;stroke:#3C3930;stroke-width:0.75;stroke-linecap:round;stroke-linejoin:round;stroke-miterlimit:10;" d="
				M95.753,78.025c0.296,0.996,4.005,1.973,6.974,0.808"/>
			<path style="fill:none;stroke:#3C3930;stroke-width:0.75;stroke-linecap:round;stroke-linejoin:round;stroke-miterlimit:10;" d="
				M95.904,74.859c1.083,1.638,6.637,1.449,6.821,0.509"/>
			<path style="fill:none;stroke:#3C3930;stroke-width:0.75;stroke-linecap:round;stroke-linejoin:round;stroke-miterlimit:10;" d="
				M95.97,72.128c2.043,1.344,4.479,1.533,6.487,0.138"/>
			<path style="fill:none;stroke:#3C3930;stroke-width:0.75;stroke-linecap:round;stroke-linejoin:round;stroke-miterlimit:10;" d="
				M95.994,68.992c0.834,1.463,4.431,1.549,6.444,0.597"/>
			<path style="fill:none;stroke:#3C3930;stroke-width:0.75;stroke-linecap:round;stroke-linejoin:round;stroke-miterlimit:10;" d="
				M95.988,66.982c2.182,0.587,4.299,0.636,6.45-0.057"/>
		</g>
	</g>
	<g>
		
			<path style="fill:#FFC259;stroke:#3C3930;stroke-width:0.75;stroke-linecap:round;stroke-linejoin:round;stroke-miterlimit:10;" d="
			M99.213,134.757c10.415-0.027,14.557,4.627,20.35,8.99c17.617,13.269,30.923,4.232,31.852-4.818
			c-16.515,16.278-35.364-13.727-52.201-13.711c-16.838-0.016-35.686,29.988-52.202,13.711c0.929,9.05,14.234,18.087,31.852,4.818
			C84.656,139.384,88.798,134.73,99.213,134.757z"/>
		
			<path style="fill:#C17B34;stroke:#3C3930;stroke-width:0.75;stroke-linecap:round;stroke-linejoin:round;stroke-miterlimit:10;" d="
			M99.213,140.935c12.956-1.028,13.011-19.472,0-19.471C86.201,121.463,86.256,139.907,99.213,140.935z"/>
		<g>
			<g>
				
					<path style="fill:#FFC259;stroke:#3C3930;stroke-width:0.75;stroke-linecap:round;stroke-linejoin:round;stroke-miterlimit:10;" d="
					M161.323,237.525c-0.633,19.111-20.944,30.585-36.813,21.665c-7.442-4.183-12.288-12.695-11.895-21.223
					C128.93,237.873,145.014,237.057,161.323,237.525z"/>
				
					<path style="fill:#E28E40;stroke:#3C3930;stroke-width:0.75;stroke-linecap:round;stroke-linejoin:round;stroke-miterlimit:10;" d="
					M129.592,242.658c55.077,2.121,31.305-15.507-8.292-9.344c-2.97,0.462-10.291,2.863-8.685,4.654
					C115.519,241.207,125.675,242.507,129.592,242.658z"/>
				
					<path style="fill:#E28E40;stroke:#3C3930;stroke-width:0.75;stroke-linecap:round;stroke-linejoin:round;stroke-miterlimit:10;" d="
					M133.827,145.8c0.371-7.695,8.996-12.361,8.138,4.227c-0.251,4.855-2.889,6.099-5.155,5.27
					C133.247,153.994,133.685,148.748,133.827,145.8z"/>
				
					<path style="fill:none;stroke:#3C3930;stroke-width:0.75;stroke-linecap:round;stroke-linejoin:round;stroke-miterlimit:10;" d="
					M112.387,237.417c1.679-12.417,6.678-24.265,10.228-36.282c4.341-14.695,4.978-23.916,13.387-46.243"/>
				
					<path style="fill:none;stroke:#3C3930;stroke-width:0.75;stroke-linecap:round;stroke-linejoin:round;stroke-miterlimit:10;" d="
					M161.832,238.593c-6.698-41.85-17.738-63.242-21.819-83.701"/>
				
					<path style="fill:none;stroke:#3C3930;stroke-width:0.75;stroke-linecap:round;stroke-linejoin:round;stroke-miterlimit:10;" d="
					M137.421,242.725c0.837-16.772,0.136-28.306-0.011-68.864c-0.022-6.109,1.04-12.235,0.817-18.34"/>
				
					<path style="fill:none;stroke:#3C3930;stroke-width:0.75;stroke-linecap:round;stroke-linejoin:round;stroke-miterlimit:10;" d="
					M131.585,258.644c8.459,1.044,17.345-2.517,22.741-9.114"/>
				
					<path style="fill:none;stroke:#3C3930;stroke-width:0.75;stroke-linecap:round;stroke-linejoin:round;stroke-miterlimit:10;" d="
					M155.603,247.102c0.873-0.69,1.592-1.573,2.091-2.568"/>
				
					<path style="fill:none;stroke:#3C3930;stroke-width:0.75;stroke-linecap:round;stroke-linejoin:round;stroke-miterlimit:10;" d="
					M122.247,237.48c2.51-1.232,5.346-1.602,8.131-1.85c6.142-0.546,12.329-0.578,18.476-0.096"/>
				
					<path style="fill:none;stroke:#3C3930;stroke-width:0.75;stroke-linecap:round;stroke-linejoin:round;stroke-miterlimit:10;" d="
					M152.348,236.323c1.641,0.261,3.235,0.816,4.684,1.631"/>
				
					<path style="fill:none;stroke:#3C3930;stroke-width:0.75;stroke-linecap:round;stroke-linejoin:round;stroke-miterlimit:10;" d="
					M136.148,152.173c1.867,2.338,5.439-1.139,3.719-9.023"/>
			</g>
			<g>
				
					<path style="fill:#FFC259;stroke:#3C3930;stroke-width:0.75;stroke-linecap:round;stroke-linejoin:round;stroke-miterlimit:10;" d="
					M37.103,237.525c0.633,19.111,20.944,30.585,36.813,21.665c7.442-4.183,12.288-12.695,11.895-21.223
					C69.495,237.873,53.412,237.057,37.103,237.525z"/>
				
					<path style="fill:#E28E40;stroke:#3C3930;stroke-width:0.75;stroke-linecap:round;stroke-linejoin:round;stroke-miterlimit:10;" d="
					M68.833,242.658c-55.077,2.121-31.305-15.507,8.292-9.344c2.97,0.462,10.291,2.863,8.685,4.654
					C82.906,241.207,72.75,242.507,68.833,242.658z"/>
				
					<path style="fill:#E28E40;stroke:#3C3930;stroke-width:0.75;stroke-linecap:round;stroke-linejoin:round;stroke-miterlimit:10;" d="
					M64.598,145.8c-0.371-7.695-8.996-12.361-8.138,4.227c0.251,4.855,2.889,6.099,5.155,5.27
					C65.178,153.994,64.74,148.748,64.598,145.8z"/>
				
					<path style="fill:none;stroke:#3C3930;stroke-width:0.75;stroke-linecap:round;stroke-linejoin:round;stroke-miterlimit:10;" d="
					M86.038,237.417C84.359,225,79.36,213.152,75.81,201.135c-4.341-14.695-4.977-23.916-13.387-46.243"/>
				
					<path style="fill:none;stroke:#3C3930;stroke-width:0.75;stroke-linecap:round;stroke-linejoin:round;stroke-miterlimit:10;" d="
					M36.593,238.593c6.698-41.85,17.738-63.242,21.82-83.701"/>
				
					<path style="fill:none;stroke:#3C3930;stroke-width:0.75;stroke-linecap:round;stroke-linejoin:round;stroke-miterlimit:10;" d="
					M61.004,242.725c-0.837-16.772-0.136-28.306,0.011-68.864c0.022-6.109-1.04-12.235-0.817-18.34"/>
				
					<path style="fill:none;stroke:#3C3930;stroke-width:0.75;stroke-linecap:round;stroke-linejoin:round;stroke-miterlimit:10;" d="
					M54.461,256.428c1.277,0.945,2.917,1.218,4.491,1.44c1.988,0.281,3.995,0.526,6,0.404c5.217-0.319,10.203-3.295,12.959-7.736"/>
				
					<path style="fill:none;stroke:#3C3930;stroke-width:0.75;stroke-linecap:round;stroke-linejoin:round;stroke-miterlimit:10;" d="
					M79.402,247.561c0.809-1.051,1.446-2.234,1.88-3.488"/>
				
					<path style="fill:none;stroke:#3C3930;stroke-width:0.75;stroke-linecap:round;stroke-linejoin:round;stroke-miterlimit:10;" d="
					M45.404,236.937c9.73-1.786,19.735-2.06,29.548-0.807"/>
				
					<path style="fill:none;stroke:#3C3930;stroke-width:0.75;stroke-linecap:round;stroke-linejoin:round;stroke-miterlimit:10;" d="
					M77.778,236.807c1.14,0.074,2.261,0.417,3.247,0.993"/>
				
					<path style="fill:none;stroke:#3C3930;stroke-width:0.75;stroke-linecap:round;stroke-linejoin:round;stroke-miterlimit:10;" d="
					M58.879,152.772c1.773,2.501,5.206-3.338,3.354-9.39"/>
			</g>
		</g>
	</g>
</g>
<g>
	<g>
		
			<path style="fill:#E28E40;stroke:#3C3930;stroke-width:0.75;stroke-linecap:round;stroke-linejoin:round;stroke-miterlimit:10;" d="
			M64.191,202.937c4.074,0.401,12.101-7.523,2.222,2.928c-0.58,0.614,1.566,1.093,5.435,4.223c-6.75,1.092-7.458-3.513-5.706,6.335
			c-5.503-5.448-3.398-6.521-7.981,1.125c-1.007-9.09,0.56-6.567-7.341-5.189c5.817-6.61,5.762-3.514-2.151-8.904
			c11.485-1.768,7.983,2.881,6.059-7.458c7.811,8.038,4.391,7.551,10.174-1.294C64.383,197.335,64.11,200.255,64.191,202.937z"/>
		
			<path style="fill:#FFC259;stroke:#3C3930;stroke-width:0.75;stroke-linecap:round;stroke-linejoin:round;stroke-miterlimit:10;" d="
			M65.188,204.822c3.484,2.148,14.175-1.446,0.711,3.606c-0.791,0.297,0.927,1.67,3.029,6.18c-6.545-1.982-5.159-6.431-7.908,3.186
			c-2.553-7.311-0.19-7.351-7.665-2.493c3.086-8.609,3.386-5.655-4.317-7.886c8.128-3.385,6.719-0.627,1.977-8.944
			c11.095,3.454,5.907,6.094,8.718-4.04c3.489,10.651,0.63,8.712,9.709,3.304C67.82,199.873,66.293,202.376,65.188,204.822z"/>
	</g>
	
		<path style="fill:#7E978A;stroke:#3C3930;stroke-width:0.75;stroke-linecap:round;stroke-linejoin:round;stroke-miterlimit:10;" d="
		M138.461,206.113c0.001,3.209,2.491,6.418,7.464,7.364c0.73,3.885-15.373,4.882-15.358-7.364
		c-0.014-12.246,16.088-11.249,15.358-7.364C140.952,199.696,138.462,202.904,138.461,206.113z"/>
</g>
<g>
	
		<line style="fill:none;stroke:#3C3930;stroke-width:0.75;stroke-linecap:round;stroke-linejoin:round;stroke-miterlimit:10;" x1="20.106" y1="319.264" x2="32.222" y2="319.264"/>
	
		<line style="fill:none;stroke:#3C3930;stroke-width:0.75;stroke-linecap:round;stroke-linejoin:round;stroke-miterlimit:10;" x1="166.203" y1="319.264" x2="178.319" y2="319.264"/>
</g>
<g id="text">
	<text transform="matrix(1 0 0 1 79.0556 322.2637)" style="fill:#3C3930; font-family:'Cinzel-Bold'; font-size:12px;">justice</text>
	<text transform="matrix(1 0 0 1 95.6996 20.1311)" style="fill:#3C3930; font-family:'Cinzel-Bold'; font-size:9px;">xi</text>
</g>
</svg>
