<?xml version="1.0" encoding="utf-8"?>
<!-- Generator: Adobe Illustrator 27.5.0, SVG Export Plug-In . SVG Version: 6.00 Build 0)  -->
<svg version="1.1" id="PRINT" xmlns="http://www.w3.org/2000/svg" xmlns:xlink="http://www.w3.org/1999/xlink" x="0px" y="0px"
	 viewBox="0 0 198.425 340.157" style="enable-background:new 0 0 198.425 340.157;" xml:space="preserve">
<g>
	
		<rect x="-79.37" y="62.362" transform="matrix(-1.836970e-16 1 -1 -1.836970e-16 269.2913 70.8661)" style="fill:#FFFFFF;" width="357.165" height="215.433"/>
	
		<rect x="-62.362" y="79.37" transform="matrix(-1.836970e-16 1 -1 -1.836970e-16 269.2913 70.8661)" style="fill:#C1CFD8;stroke:#3C3930;stroke-width:0.75;stroke-linecap:round;stroke-linejoin:round;stroke-miterlimit:10;" width="323.149" height="181.417"/>
	<g>
		
			<path style="fill:#FDECDC;stroke:#3C3930;stroke-width:0.75;stroke-linecap:round;stroke-linejoin:round;stroke-miterlimit:10;" d="
			M118.466,8.504c0,10.634-8.62,19.254-19.254,19.254c-10.634,0-19.254-8.62-19.254-19.254H118.466z"/>
		
			<rect x="8.504" y="306.874" style="fill:#FDECDC;stroke:#3C3930;stroke-width:0.75;stroke-linecap:round;stroke-linejoin:round;stroke-miterlimit:10;" width="181.417" height="24.78"/>
	</g>
</g>
<g>
	<path style="fill:none;stroke:#FDECDC;stroke-width:0.75;stroke-linecap:round;stroke-linejoin:round;stroke-miterlimit:10;" d="
		M67.815,145.017c-2.627,4.006-10.703,0.702-7.098-4.805c0.757-1.157,3.195-2.854,4.457-1.589c-1.629,1.118-2.41,5.211,0.51,5.14
		c1.414-0.035,2.499-1.112,2.712-0.685C68.467,143.218,68.336,144.222,67.815,145.017z"/>
	<path style="fill:none;stroke:#FDECDC;stroke-width:0.75;stroke-linecap:round;stroke-linejoin:round;stroke-miterlimit:10;" d="
		M140.365,222.142c-2.627,4.005-10.703,0.702-7.098-4.805c0.757-1.157,3.195-2.854,4.457-1.589c-1.628,1.118-2.41,5.211,0.51,5.139
		c1.414-0.035,2.499-1.112,2.712-0.685C141.017,220.344,140.886,221.348,140.365,222.142z"/>
	<path style="fill:none;stroke:#FDECDC;stroke-width:0.75;stroke-linecap:round;stroke-linejoin:round;stroke-miterlimit:10;" d="
		M37.501,269.577c-2.627,4.005-10.703,0.702-7.098-4.805c0.757-1.157,3.195-2.854,4.457-1.589c-1.629,1.118-2.41,5.211,0.51,5.139
		c1.414-0.035,2.499-1.112,2.712-0.685C38.153,267.779,38.022,268.782,37.501,269.577z"/>
	<path style="fill:none;stroke:#FDECDC;stroke-width:0.75;stroke-linecap:round;stroke-linejoin:round;stroke-miterlimit:10;" d="
		M175.258,72.652c-2.627,4.006-10.703,0.702-7.098-4.805c0.757-1.157,3.195-2.854,4.457-1.589c-1.628,1.118-2.41,5.211,0.51,5.139
		c1.414-0.035,2.499-1.112,2.712-0.685C175.91,70.853,175.779,71.857,175.258,72.652z"/>
	<path style="fill:none;stroke:#FDECDC;stroke-width:0.75;stroke-linecap:round;stroke-linejoin:round;stroke-miterlimit:10;" d="
		M126.215,31.143c-2.627,4.006-10.703,0.702-7.098-4.805c0.757-1.157,3.195-2.854,4.457-1.589c-1.629,1.118-2.41,5.211,0.51,5.139
		c1.414-0.035,2.499-1.112,2.712-0.685C126.867,29.344,126.736,30.348,126.215,31.143z"/>
	<path style="fill:none;stroke:#FDECDC;stroke-width:0.75;stroke-linecap:round;stroke-linejoin:round;stroke-miterlimit:10;" d="
		M32.678,188.331c-2.627,4.006-10.703,0.702-7.098-4.805c0.757-1.157,3.195-2.854,4.457-1.589c-1.629,1.118-2.41,5.211,0.51,5.14
		c1.414-0.035,2.499-1.112,2.712-0.685C33.33,186.532,33.199,187.536,32.678,188.331z"/>
	<path style="fill:none;stroke:#FDECDC;stroke-width:0.75;stroke-linecap:round;stroke-linejoin:round;stroke-miterlimit:10;" d="
		M118.264,252.083c-2.627,4.005-10.703,0.702-7.098-4.805c0.757-1.157,3.195-2.854,4.457-1.589c-1.629,1.118-2.41,5.211,0.51,5.139
		c1.414-0.035,2.499-1.112,2.712-0.685C118.916,250.284,118.786,251.288,118.264,252.083z"/>
	<path style="fill:none;stroke:#FDECDC;stroke-width:0.75;stroke-linecap:round;stroke-linejoin:round;stroke-miterlimit:10;" d="
		M76.277,100.549c-2.627,4.006-10.703,0.702-7.098-4.805c0.757-1.157,3.195-2.854,4.457-1.589c-1.628,1.118-2.41,5.211,0.51,5.14
		c1.414-0.035,2.499-1.112,2.712-0.685C76.929,98.75,76.798,99.754,76.277,100.549z"/>
	<path style="fill:none;stroke:#FDECDC;stroke-width:0.75;stroke-linecap:round;stroke-linejoin:round;stroke-miterlimit:10;" d="
		M102.809,169.076c-2.627,4.005-10.703,0.702-7.098-4.805c0.757-1.157,3.195-2.854,4.457-1.589c-1.629,1.118-2.41,5.211,0.51,5.139
		c1.414-0.035,2.499-1.112,2.712-0.685C103.461,167.277,103.33,168.281,102.809,169.076z"/>
	<path style="fill:none;stroke:#FDECDC;stroke-width:0.75;stroke-linecap:round;stroke-linejoin:round;stroke-miterlimit:10;" d="
		M138.773,181.14c-2.627,4.005-10.703,0.702-7.098-4.805c0.757-1.157,3.195-2.854,4.457-1.589c-1.628,1.118-2.41,5.211,0.51,5.139
		c1.414-0.035,2.499-1.112,2.712-0.685C139.425,179.341,139.295,180.345,138.773,181.14z"/>
	<path style="fill:none;stroke:#FDECDC;stroke-width:0.75;stroke-linecap:round;stroke-linejoin:round;stroke-miterlimit:10;" d="
		M101.972,129.93c-2.627,4.005-10.703,0.702-7.098-4.805c0.757-1.157,3.195-2.854,4.457-1.589c-1.629,1.118-2.41,5.211,0.51,5.14
		c1.414-0.035,2.499-1.112,2.712-0.685C102.624,128.132,102.494,129.136,101.972,129.93z"/>
	<path style="fill:none;stroke:#FDECDC;stroke-width:0.75;stroke-linecap:round;stroke-linejoin:round;stroke-miterlimit:10;" d="
		M36.199,32.4c-2.627,4.006-10.703,0.702-7.098-4.805c0.757-1.157,3.195-2.854,4.457-1.589c-1.629,1.118-2.41,5.211,0.51,5.139
		c1.414-0.035,2.499-1.112,2.712-0.685C36.851,30.601,36.72,31.605,36.199,32.4z"/>
	<path style="fill:none;stroke:#FDECDC;stroke-width:0.75;stroke-linecap:round;stroke-linejoin:round;stroke-miterlimit:10;" d="
		M35.717,113.136c-2.627,4.006-10.703,0.702-7.098-4.805c0.757-1.157,3.195-2.854,4.457-1.589c-1.629,1.118-2.41,5.211,0.51,5.14
		c1.414-0.035,2.499-1.112,2.712-0.685C36.369,111.338,36.239,112.341,35.717,113.136z"/>
	<path style="fill:none;stroke:#FDECDC;stroke-width:0.75;stroke-linecap:round;stroke-linejoin:round;stroke-miterlimit:10;" d="
		M82.482,29.946c-2.627,4.006-10.703,0.702-7.098-4.805c0.757-1.157,3.195-2.854,4.457-1.589c-1.629,1.118-2.41,5.211,0.51,5.139
		c1.414-0.035,2.499-1.112,2.712-0.685C83.134,28.147,83.003,29.151,82.482,29.946z"/>
	<path style="fill:none;stroke:#FDECDC;stroke-width:0.75;stroke-linecap:round;stroke-linejoin:round;stroke-miterlimit:10;" d="
		M32.698,151.707c-2.627,4.006-10.703,0.702-7.098-4.805c0.757-1.157,3.195-2.854,4.457-1.589c-1.628,1.118-2.41,5.211,0.51,5.139
		c1.414-0.035,2.499-1.112,2.712-0.685C33.35,149.909,33.219,150.913,32.698,151.707z"/>
	<path style="fill:none;stroke:#FDECDC;stroke-width:0.75;stroke-linecap:round;stroke-linejoin:round;stroke-miterlimit:10;" d="
		M103.931,67.286c-2.627,4.006-10.703,0.702-7.098-4.805c0.757-1.157,3.195-2.854,4.457-1.589c-1.629,1.118-2.41,5.211,0.51,5.14
		c1.414-0.035,2.499-1.112,2.712-0.685C104.583,65.488,104.453,66.492,103.931,67.286z"/>
	<path style="fill:none;stroke:#FDECDC;stroke-width:0.75;stroke-linecap:round;stroke-linejoin:round;stroke-miterlimit:10;" d="
		M68.587,191.193c-2.627,4.005-10.703,0.702-7.098-4.805c0.757-1.157,3.195-2.854,4.457-1.589c-1.629,1.118-2.41,5.211,0.51,5.139
		c1.414-0.035,2.499-1.112,2.712-0.685C69.239,189.394,69.108,190.398,68.587,191.193z"/>
	<path style="fill:none;stroke:#FDECDC;stroke-width:0.75;stroke-linecap:round;stroke-linejoin:round;stroke-miterlimit:10;" d="
		M73.184,238.167c-2.627,4.005-10.703,0.702-7.098-4.805c0.757-1.157,3.195-2.854,4.457-1.589c-1.629,1.118-2.41,5.211,0.51,5.139
		c1.414-0.035,2.499-1.112,2.712-0.685C73.835,236.368,73.705,237.372,73.184,238.167z"/>
	<path style="fill:none;stroke:#FDECDC;stroke-width:0.75;stroke-linecap:round;stroke-linejoin:round;stroke-miterlimit:10;" d="
		M138.58,139.648c-2.627,4.005-10.703,0.702-7.098-4.805c0.757-1.157,3.195-2.854,4.457-1.589c-1.628,1.118-2.41,5.211,0.51,5.139
		c1.414-0.035,2.499-1.112,2.712-0.685C139.232,137.85,139.101,138.853,138.58,139.648z"/>
	<path style="fill:none;stroke:#FDECDC;stroke-width:0.75;stroke-linecap:round;stroke-linejoin:round;stroke-miterlimit:10;" d="
		M142.958,66.498c-2.627,4.006-10.703,0.702-7.098-4.805c0.757-1.157,3.195-2.854,4.457-1.589c-1.629,1.118-2.41,5.211,0.51,5.139
		c1.414-0.035,2.499-1.112,2.712-0.685C143.61,64.7,143.48,65.703,142.958,66.498z"/>
	<path style="fill:none;stroke:#FDECDC;stroke-width:0.75;stroke-linecap:round;stroke-linejoin:round;stroke-miterlimit:10;" d="
		M173.841,196.416c-2.627,4.006-10.703,0.702-7.098-4.805c0.757-1.157,3.195-2.854,4.457-1.589c-1.629,1.118-2.41,5.211,0.51,5.14
		c1.414-0.035,2.499-1.112,2.712-0.685C174.493,194.617,174.363,195.621,173.841,196.416z"/>
	<path style="fill:none;stroke:#FDECDC;stroke-width:0.75;stroke-linecap:round;stroke-linejoin:round;stroke-miterlimit:10;" d="
		M32.223,74.445c-2.627,4.006-10.703,0.702-7.098-4.805c0.757-1.157,3.195-2.854,4.457-1.589c-1.628,1.118-2.41,5.211,0.51,5.139
		c1.414-0.035,2.499-1.112,2.712-0.685C32.875,72.646,32.745,73.65,32.223,74.445z"/>
	<path style="fill:none;stroke:#FDECDC;stroke-width:0.75;stroke-linecap:round;stroke-linejoin:round;stroke-miterlimit:10;" d="
		M171.381,238.691c-2.627,4.006-10.703,0.702-7.098-4.805c0.757-1.157,3.195-2.854,4.457-1.589c-1.629,1.118-2.41,5.211,0.51,5.139
		c1.414-0.035,2.499-1.112,2.712-0.685C172.033,236.892,171.902,237.896,171.381,238.691z"/>
	<path style="fill:none;stroke:#FDECDC;stroke-width:0.75;stroke-linecap:round;stroke-linejoin:round;stroke-miterlimit:10;" d="
		M103.884,210.831c-2.627,4.005-10.703,0.702-7.098-4.805c0.757-1.157,3.195-2.854,4.457-1.589c-1.629,1.118-2.41,5.211,0.51,5.139
		c1.414-0.035,2.499-1.112,2.712-0.685C104.536,209.033,104.405,210.036,103.884,210.831z"/>
	<path style="fill:none;stroke:#FDECDC;stroke-width:0.75;stroke-linecap:round;stroke-linejoin:round;stroke-miterlimit:10;" d="
		M65.872,62.571c-2.627,4.006-10.703,0.702-7.098-4.805c0.757-1.157,3.195-2.854,4.457-1.589c-1.629,1.118-2.41,5.211,0.51,5.14
		c1.414-0.035,2.499-1.112,2.712-0.685C66.524,60.773,66.394,61.777,65.872,62.571z"/>
	<path style="fill:none;stroke:#FDECDC;stroke-width:0.75;stroke-linecap:round;stroke-linejoin:round;stroke-miterlimit:10;" d="
		M171.375,275.15c-2.627,4.005-10.703,0.702-7.098-4.805c0.757-1.157,3.195-2.854,4.457-1.589c-1.629,1.118-2.41,5.211,0.51,5.139
		c1.414-0.035,2.499-1.112,2.712-0.685C172.026,273.351,171.896,274.355,171.375,275.15z"/>
	<path style="fill:none;stroke:#FDECDC;stroke-width:0.75;stroke-linecap:round;stroke-linejoin:round;stroke-miterlimit:10;" d="
		M173.5,154.048c-2.627,4.006-10.703,0.702-7.098-4.805c0.757-1.157,3.195-2.854,4.457-1.589c-1.629,1.118-2.41,5.211,0.51,5.139
		c1.414-0.035,2.499-1.112,2.712-0.685C174.152,152.249,174.022,153.253,173.5,154.048z"/>
	<path style="fill:none;stroke:#FDECDC;stroke-width:0.75;stroke-linecap:round;stroke-linejoin:round;stroke-miterlimit:10;" d="
		M170.223,32.318c-2.627,4.006-10.703,0.702-7.098-4.805c0.757-1.157,3.195-2.854,4.457-1.589c-1.629,1.118-2.41,5.211,0.51,5.14
		c1.414-0.035,2.499-1.112,2.712-0.685C170.875,30.52,170.745,31.523,170.223,32.318z"/>
	<path style="fill:none;stroke:#FDECDC;stroke-width:0.75;stroke-linecap:round;stroke-linejoin:round;stroke-miterlimit:10;" d="
		M170.399,111.526c-2.627,4.006-10.703,0.702-7.098-4.805c0.757-1.157,3.195-2.854,4.457-1.589c-1.629,1.118-2.41,5.211,0.51,5.14
		c1.414-0.035,2.499-1.112,2.712-0.685C171.05,109.728,170.92,110.731,170.399,111.526z"/>
	<path style="fill:none;stroke:#FDECDC;stroke-width:0.75;stroke-linecap:round;stroke-linejoin:round;stroke-miterlimit:10;" d="
		M134.113,284.919c-2.627,4.005-10.703,0.702-7.098-4.805c0.757-1.157,3.195-2.854,4.457-1.589c-1.628,1.118-2.41,5.211,0.51,5.139
		c1.414-0.035,2.499-1.112,2.712-0.685C134.765,283.121,134.634,284.125,134.113,284.919z"/>
	<path style="fill:none;stroke:#FDECDC;stroke-width:0.75;stroke-linecap:round;stroke-linejoin:round;stroke-miterlimit:10;" d="
		M34.366,227.51c-2.627,4.005-10.703,0.702-7.098-4.805c0.757-1.157,3.195-2.854,4.457-1.589c-1.628,1.118-2.41,5.211,0.51,5.139
		c1.414-0.035,2.499-1.112,2.712-0.685C35.018,225.712,34.888,226.715,34.366,227.51z"/>
	<path style="fill:none;stroke:#FDECDC;stroke-width:0.75;stroke-linecap:round;stroke-linejoin:round;stroke-miterlimit:10;" d="
		M126.776,100.658c-2.627,4.006-10.703,0.702-7.098-4.805c0.757-1.157,3.195-2.854,4.457-1.589c-1.629,1.118-2.41,5.211,0.51,5.139
		c1.414-0.035,2.499-1.112,2.712-0.685C127.428,98.859,127.297,99.863,126.776,100.658z"/>
	<path style="fill:none;stroke:#FDECDC;stroke-width:0.75;stroke-linecap:round;stroke-linejoin:round;stroke-miterlimit:10;" d="
		M84.713,277.531c-2.627,4.005-10.703,0.702-7.098-4.805c0.757-1.157,3.195-2.854,4.457-1.589c-1.629,1.118-2.41,5.211,0.51,5.14
		c1.414-0.035,2.499-1.112,2.712-0.685C85.364,275.732,85.234,276.736,84.713,277.531z"/>
</g>
<g>
	
		<path style="fill:#FFC259;stroke:#3C3930;stroke-width:0.75;stroke-linecap:round;stroke-linejoin:round;stroke-miterlimit:10;" d="
		M174.145,28.858c-0.538,1.895-0.721,3.89-0.538,5.852c5.065-5.003,1.039-7.778,7.356,8.972c0.235-8.833,0.289-17.672,0.162-26.507
		c-0.1-0.03-16.039-0.491-25.599-0.195c14.422,5.661,10.203,3.09,5.504,9.221c2.366-0.157,4.529-1.71,6.897-1.577
		c-0.942,3.046-2.849,7.64-3.298,10.309C167.727,32.61,171.048,31.18,174.145,28.858z"/>
	
		<path style="fill:#FFC259;stroke:#3C3930;stroke-width:0.75;stroke-linecap:round;stroke-linejoin:round;stroke-miterlimit:10;" d="
		M24.28,28.858c0.538,1.895,0.721,3.89,0.538,5.852c-5.065-5.003-1.039-7.778-7.356,8.972c-0.235-8.833-0.289-17.672-0.162-26.507
		c0.1-0.03,16.039-0.491,25.599-0.195c-14.422,5.661-10.203,3.09-5.504,9.221c-2.366-0.157-4.529-1.71-6.897-1.577
		c0.942,3.046,2.849,7.64,3.297,10.309C30.698,32.61,27.377,31.18,24.28,28.858z"/>
	
		<path style="fill:#FFC259;stroke:#3C3930;stroke-width:0.75;stroke-linecap:round;stroke-linejoin:round;stroke-miterlimit:10;" d="
		M24.28,285.595c0.538-1.895,0.721-3.89,0.538-5.852c-5.065,5.003-1.039,7.779-7.356-8.972c-0.235,8.833-0.289,17.672-0.162,26.507
		c0.1,0.03,16.039,0.491,25.599,0.195c-14.422-5.661-10.203-3.09-5.504-9.221c-2.366,0.157-4.529,1.71-6.897,1.577
		c0.942-3.046,2.849-7.64,3.297-10.309C30.698,281.844,27.377,283.273,24.28,285.595z"/>
	
		<path style="fill:#FFC259;stroke:#3C3930;stroke-width:0.75;stroke-linecap:round;stroke-linejoin:round;stroke-miterlimit:10;" d="
		M174.145,285.595c-0.538-1.895-0.721-3.89-0.538-5.852c5.065,5.003,1.039,7.779,7.356-8.972c0.235,8.833,0.289,17.672,0.162,26.507
		c-0.1,0.03-16.039,0.491-25.599,0.195c14.422-5.661,10.203-3.09,5.504-9.221c2.366,0.157,4.529,1.71,6.897,1.577
		c-0.942-3.046-2.849-7.64-3.298-10.309C167.727,281.844,171.048,283.273,174.145,285.595z"/>
</g>
<g>
	
		<path style="fill:#7E978A;stroke:#3C3930;stroke-width:0.75;stroke-linecap:round;stroke-linejoin:round;stroke-miterlimit:10;" d="
		M44.957,92.101c3.765,0.37,11.185-6.953,2.054,2.707c-0.537,0.568,1.448,1.01,5.024,3.903c-6.24,1.009-6.894-3.247-5.274,5.855
		c-5.086-5.035-3.141-6.027-7.377,1.04c-0.931-8.402,0.518-6.07-6.785-4.797c5.377-6.11,5.326-3.248-1.988-8.23
		c10.616-1.634,7.379,2.663,5.601-6.893c7.22,7.429,4.058,6.979,9.404-1.196C45.135,86.923,44.882,89.622,44.957,92.101z"/>
	
		<path style="fill:#7E978A;stroke:#3C3930;stroke-width:0.75;stroke-linecap:round;stroke-linejoin:round;stroke-miterlimit:10;" d="
		M141.167,239.456c0.001,3.209,2.491,6.418,7.464,7.364c0.73,3.885-15.373,4.882-15.358-7.364
		c-0.014-12.246,16.088-11.249,15.358-7.364C143.658,233.038,141.168,236.247,141.167,239.456z"/>
</g>
<g>
	<g>
		<g>
			
				<path style="fill:#FDECDC;stroke:#3C3930;stroke-width:0.75;stroke-linecap:round;stroke-linejoin:round;stroke-miterlimit:10;" d="
				M99.213,201.897c1.62-3.186,3.7-0.951,3.462,0.492c1.593-2.777,4.137-4.331,4.109-0.906c0.995-5.19,3.601-2.075,3.593-1.47
				c1.131-1.464,1.375-3.53,3.161-3.181c2.206,0.43,0.241,3.893,1.833,0.021c0.713-1.735,1.949-0.959,1.993,0.78
				c0.237-3.511,3.978-6.177,3.571,2.57c-0.054,1.157-0.301,1.49-1.286,2.062c-10.589,6.152-15.024,5.597-20.436,5.655
				c-5.412-0.059-9.848,0.497-20.436-5.655c-0.985-0.572-1.232-0.905-1.286-2.062c-0.407-8.747,3.335-6.08,3.571-2.57
				c0.044-1.739,1.28-2.514,1.993-0.78c1.592,3.872-0.373,0.41,1.833-0.021c1.786-0.348,2.03,1.717,3.161,3.181
				c-0.008-0.604,2.598-3.719,3.593,1.47c-0.029-3.425,2.516-1.871,4.109,0.906C95.513,200.946,97.593,198.711,99.213,201.897z"/>
			<path style="fill:none;stroke:#3C3930;stroke-width:0.75;stroke-linecap:round;stroke-linejoin:round;stroke-miterlimit:10;" d="
				M117.363,197.633c-0.045,0.621-0.057,3.733-0.103,4.354"/>
			<path style="fill:none;stroke:#3C3930;stroke-width:0.75;stroke-linecap:round;stroke-linejoin:round;stroke-miterlimit:10;" d="
				M81.062,197.633c0.045,0.621,0.057,3.733,0.102,4.354"/>
			<path style="fill:none;stroke:#3C3930;stroke-width:0.75;stroke-linecap:round;stroke-linejoin:round;stroke-miterlimit:10;" d="
				M114.675,198.607c-0.082,0.738-0.712,4.405-0.793,5.143"/>
			<path style="fill:none;stroke:#3C3930;stroke-width:0.75;stroke-linecap:round;stroke-linejoin:round;stroke-miterlimit:10;" d="
				M83.75,198.607c0.082,0.738,0.712,4.405,0.793,5.143"/>
			<path style="fill:none;stroke:#3C3930;stroke-width:0.75;stroke-linecap:round;stroke-linejoin:round;stroke-miterlimit:10;" d="
				M110.376,200.013c0.114,0.858-1.065,4.549-1.3,5.382"/>
			<path style="fill:none;stroke:#3C3930;stroke-width:0.75;stroke-linecap:round;stroke-linejoin:round;stroke-miterlimit:10;" d="
				M88.049,200.013c-0.114,0.858,1.065,4.549,1.3,5.382"/>
			<path style="fill:none;stroke:#3C3930;stroke-width:0.75;stroke-linecap:round;stroke-linejoin:round;stroke-miterlimit:10;" d="
				M106.783,201.484c-0.2,1.086-0.677,3.519-1.089,4.349"/>
			<path style="fill:none;stroke:#3C3930;stroke-width:0.75;stroke-linecap:round;stroke-linejoin:round;stroke-miterlimit:10;" d="
				M91.642,201.484c0.2,1.086,0.677,3.519,1.089,4.349"/>
			<path style="fill:none;stroke:#3C3930;stroke-width:0.75;stroke-linecap:round;stroke-linejoin:round;stroke-miterlimit:10;" d="
				M102.675,202.39c-0.191,0.855-1.174,3.083-1.365,3.938"/>
			<path style="fill:none;stroke:#3C3930;stroke-width:0.75;stroke-linecap:round;stroke-linejoin:round;stroke-miterlimit:10;" d="
				M95.75,202.39c0.191,0.855,1.174,3.083,1.365,3.938"/>
			<path style="fill:none;stroke:#3C3930;stroke-width:0.75;stroke-linecap:round;stroke-linejoin:round;stroke-miterlimit:10;" d="
				M99.213,201.897c-0.018,1.608,0.09,3.21-0.078,4.809"/>
		</g>
		<g>
			
				<path style="fill:#FDECDC;stroke:#3C3930;stroke-width:0.75;stroke-linecap:round;stroke-linejoin:round;stroke-miterlimit:10;" d="
				M99.271,206.375c15.392-2.064,19.276-5.748,24.801-12.067c5.118-5.853,9.084-11.85,7.161-21.012
				c1.438-1.684,4.328-1.294,5.583,0.53c2.646,3.845-1.254,11.714-2.289,15.757c-5.369,20.968-5.499,22.089-6.827,24.537
				c-5.002,9.222-16.587,13.925-28.216,14.04c-11.63,0.112-23.304-4.364-28.485-13.486c-1.376-2.422-1.528-3.541-7.305-24.399
				c-1.114-4.022-5.166-11.814-2.596-15.709c1.219-1.848,4.101-2.294,5.572-0.639c-1.744,9.198,2.339,15.116,7.57,20.868
				C79.887,201.005,83.842,204.612,99.271,206.375z"/>
			<path style="fill:none;stroke:#3C3930;stroke-width:0.75;stroke-linecap:round;stroke-linejoin:round;stroke-miterlimit:10;" d="
				M112.207,221.262c-1.548-6.382-7.231-9.529-12.882-9.475c-5.652,0.056-11.272,3.313-12.695,9.724"/>
			<path style="fill:none;stroke:#3C3930;stroke-width:0.75;stroke-linecap:round;stroke-linejoin:round;stroke-miterlimit:10;" d="
				M132.253,186.593c-5.004,15.837-3.548,20.44-7.823,25.399"/>
			<path style="fill:none;stroke:#3C3930;stroke-width:0.75;stroke-linecap:round;stroke-linejoin:round;stroke-miterlimit:10;" d="
				M65.91,187.241c5.312,15.737,3.946,20.367,8.317,25.241"/>
			<path style="fill:none;stroke:#3C3930;stroke-width:0.75;stroke-linecap:round;stroke-linejoin:round;stroke-miterlimit:10;" d="
				M122.053,214.931c-1.008,1.651-2.636,2.913-4.486,3.478"/>
			<path style="fill:none;stroke:#3C3930;stroke-width:0.75;stroke-linecap:round;stroke-linejoin:round;stroke-miterlimit:10;" d="
				M76.66,215.374c1.04,1.631,2.692,2.861,4.553,3.39"/>
		</g>
	</g>
	<g>
		
			<path style="fill:#A2C675;stroke:#3C3930;stroke-width:0.8952;stroke-linecap:round;stroke-linejoin:round;stroke-miterlimit:10;" d="
			M100.934,233.704c-8.666-2.988-17.64-5.767-26.539-7.833c-7.517-1.745-15.663-3.117-21.24-8.96
			c-1.474-1.544-2.702-3.403-3.107-5.499c-0.523-2.71,0.421-5.587,2.187-7.708c3.935-4.728,12.511-8.79,18.515-9.484
			c2.256-0.261,4.606-0.07,6.733-0.866c5.079-1.901,6.438-8.779,2.838-12.719c-2.866-3.136-6.23-2.214-9.942-1.273
			c-9.202,2.331-20.889,7.099-28.442,14.646c-9.249,9.243-11.871,23.636-0.581,32.329c5.414,4.169,11.352,6.3,17.942,7.881
			c8.397,2.015,16.795,4.03,25.192,6.045c5.101,1.224,10.782,2.874,13.295,7.479c2.695,4.939,0.301,10.815-3.312,14.548
			c-4.041,4.175-10.11,4.144-14.885,7.411c-2.494,1.707-4.731,3.878-6.129,6.558c-1.398,2.68-1.891,5.906-0.945,8.776
			c1.282-5.195,6.706-7.998,11.731-9.837c5.025-1.839,10.44-2.463,15.42-4.421c6.381-2.51,11.673-8.886,12.921-15.618
			C114.29,245.97,109.647,236.708,100.934,233.704z"/>
		
			<path style="fill:none;stroke:#3C3930;stroke-width:0.8952;stroke-linecap:round;stroke-linejoin:round;stroke-miterlimit:10;" d="
			M36.88,211.04c0.252-8.075,4.056-13.862,11.369-17.296"/>
		
			<path style="fill:none;stroke:#3C3930;stroke-width:0.8952;stroke-linecap:round;stroke-linejoin:round;stroke-miterlimit:10;" d="
			M69.555,190.874c1.644-0.417,3.287-0.833,4.931-1.249"/>
		
			<path style="fill:none;stroke:#3C3930;stroke-width:0.8952;stroke-linecap:round;stroke-linejoin:round;stroke-miterlimit:10;" d="
			M98.218,266.423c7.81-3.849,12.173-13.593,9.842-21.982"/>
		
			<path style="fill:none;stroke:#3C3930;stroke-width:0.8952;stroke-linecap:round;stroke-linejoin:round;stroke-miterlimit:10;" d="
			M38.179,217.166c0.52,1.272,2.099,1.998,3.404,1.564c1.304-0.434,2.134-1.961,1.788-3.292c0.546,1.003,1.731,1.664,2.855,1.462
			c1.124-0.203,2.035-1.35,1.849-2.478"/>
		
			<path style="fill:none;stroke:#3C3930;stroke-width:0.8952;stroke-linecap:round;stroke-linejoin:round;stroke-miterlimit:10;" d="
			M60.185,231.487c0.841,1.017,2.504,1.218,3.562,0.43c1.058-0.787,1.344-2.438,0.612-3.535c1.003,0.393,2.194,0.521,3.123-0.027
			c0.929-0.547,1.374-1.936,0.674-2.757"/>
		
			<path style="fill:none;stroke:#3C3930;stroke-width:0.8952;stroke-linecap:round;stroke-linejoin:round;stroke-miterlimit:10;" d="
			M87.146,237.398c0.743,1.05,2.284,1.44,3.437,0.869c1.153-0.571,1.777-2.033,1.391-3.261c0.878,1.129,2.497,1.618,3.854,1.162
			c1.356-0.456,2.352-1.822,2.371-3.253"/>
	</g>
	<g>
		<g>
			
				<path style="fill:#FDECDC;stroke:#3C3930;stroke-width:0.75;stroke-linecap:round;stroke-linejoin:round;stroke-miterlimit:10;" d="
				M99.213,199.065c1.444,2.24,6.05,0.766,5.881-2.849c0.752,5.072,4.731,2.849,4.49-0.368c0.38,1.303,0.807,2.727,2.121,2.561
				c1.314-0.166,1.57-1.851,1.564-3.014c0.866,4.325,4.105,1.442,3.134-1.337c1.298,3.474,5.033,3.449,1.966-10.362
				c-9.211,6.473-11.875,3.441-19.155,4.254c-7.28-0.814-9.944,2.219-19.155-4.254c-3.067,13.811,0.668,13.836,1.966,10.362
				c-0.971,2.779,2.268,5.662,3.133,1.337c-0.007,1.163,0.25,2.848,1.564,3.014c1.314,0.166,1.741-1.258,2.12-2.561
				c-0.242,3.217,3.738,5.439,4.49,0.368C93.162,199.831,97.769,201.305,99.213,199.065z"/>
			<path style="fill:none;stroke:#3C3930;stroke-width:0.75;stroke-linecap:round;stroke-linejoin:round;stroke-miterlimit:10;" d="
				M116.401,194.059c-0.369-1.23-0.9-2.931-1.146-4.133"/>
			<path style="fill:none;stroke:#3C3930;stroke-width:0.75;stroke-linecap:round;stroke-linejoin:round;stroke-miterlimit:10;" d="
				M82.024,194.059c0.369-1.23,0.9-2.931,1.146-4.133"/>
			<path style="fill:none;stroke:#3C3930;stroke-width:0.75;stroke-linecap:round;stroke-linejoin:round;stroke-miterlimit:10;" d="
				M113.268,195.396c-0.209-1.533-0.935-4.034-1.3-5.538"/>
			<path style="fill:none;stroke:#3C3930;stroke-width:0.75;stroke-linecap:round;stroke-linejoin:round;stroke-miterlimit:10;" d="
				M85.157,195.396c0.209-1.533,0.935-4.034,1.301-5.538"/>
			<path style="fill:none;stroke:#3C3930;stroke-width:0.75;stroke-linecap:round;stroke-linejoin:round;stroke-miterlimit:10;" d="
				M109.583,195.848c-0.155-1.455-0.815-4.262-1.172-5.735"/>
			<path style="fill:none;stroke:#3C3930;stroke-width:0.75;stroke-linecap:round;stroke-linejoin:round;stroke-miterlimit:10;" d="
				M88.842,195.848c0.155-1.455,0.815-4.262,1.172-5.735"/>
			<path style="fill:none;stroke:#3C3930;stroke-width:0.75;stroke-linecap:round;stroke-linejoin:round;stroke-miterlimit:10;" d="
				M105.093,196.216c-0.032-1.471-0.69-4.371-1.128-5.775"/>
			<path style="fill:none;stroke:#3C3930;stroke-width:0.75;stroke-linecap:round;stroke-linejoin:round;stroke-miterlimit:10;" d="
				M93.332,196.216c0.032-1.471,0.69-4.371,1.128-5.775"/>
			<path style="fill:none;stroke:#3C3930;stroke-width:0.75;stroke-linecap:round;stroke-linejoin:round;stroke-miterlimit:10;" d="
				M99.213,199.065c0.22-3.024,0.199-5.595,0.064-8.624"/>
		</g>
		<g>
			
				<path style="fill:#FDECDC;stroke:#3C3930;stroke-width:0.75;stroke-linecap:round;stroke-linejoin:round;stroke-miterlimit:10;" d="
				M99.213,79.966c22.463,0.121,32.978,13.791,38.056,18.829c7.756,7.693,7.349,19.963,5.383,29.864
				c-0.554,2.792-0.595,3.436,0.347,6.251c3.834,11.464-0.612,21.513,0.075,25.264c0.535,2.924,5.044,8.228-0.475,13.959
				c-5.06,5.255-11.71,3.363-16.541,4.026c-10.069,1.384-5.563,9.051-9.014,11.562c-1.844,1.342-6.425,0.333-12.259,1.051
				c-1.67,0.206-3.621,0.309-5.573,0.309c-1.952,0-3.902-0.103-5.573-0.309c-5.834-0.718-10.414,0.291-12.259-1.051
				c-3.451-2.511,1.055-10.178-9.014-11.562c-4.831-0.664-11.481,1.228-16.541-4.026c-5.518-5.731-1.01-11.035-0.475-13.959
				c0.687-3.751-3.759-13.799,0.075-25.264c0.941-2.815,0.901-3.459,0.347-6.251c-1.966-9.901-2.372-22.171,5.383-29.864
				C66.235,93.757,76.749,80.087,99.213,79.966z"/>
			
				<path style="fill:#7E978A;stroke:#3C3930;stroke-width:0.75;stroke-linecap:round;stroke-linejoin:round;stroke-miterlimit:10;" d="
				M131.459,162.823c2.484-0.258,3.561-1.04,4.063-4.432c1.518-10.261-0.216-18.299-10.469-22.922
				C95.435,122.114,104.086,165.665,131.459,162.823z"/>
			
				<path style="fill:#7E978A;stroke:#3C3930;stroke-width:0.75;stroke-linecap:round;stroke-linejoin:round;stroke-miterlimit:10;" d="
				M66.966,162.823c-2.484-0.258-3.561-1.04-4.063-4.432c-1.518-10.261,0.216-18.299,10.469-22.922
				C102.99,122.114,94.339,165.665,66.966,162.823z"/>
			
				<path style="fill:#7E978A;stroke:#3C3930;stroke-width:0.75;stroke-linecap:round;stroke-linejoin:round;stroke-miterlimit:10;" d="
				M102.769,161.846c-0.53,4.214-2.665,9.987,1.58,11.781c1.994,0.842,3.892-0.01,4.594-2.072
				c2.154-6.329-4.654-18.913-6.859-17.078C101.201,155.213,103.19,158.499,102.769,161.846z"/>
			
				<path style="fill:#7E978A;stroke:#3C3930;stroke-width:0.75;stroke-linecap:round;stroke-linejoin:round;stroke-miterlimit:10;" d="
				M95.656,161.846c0.53,4.214,2.665,9.987-1.58,11.781c-1.994,0.842-3.892-0.01-4.594-2.072
				c-2.154-6.329,4.654-18.913,6.859-17.078C97.224,155.213,95.235,158.499,95.656,161.846z"/>
			<path style="fill:none;stroke:#3C3930;stroke-width:0.75;stroke-linecap:round;stroke-linejoin:round;stroke-miterlimit:10;" d="
				M118.996,167.355c6.461,3.247,14.228,4.761,20.945,2.083"/>
			<path style="fill:none;stroke:#3C3930;stroke-width:0.75;stroke-linecap:round;stroke-linejoin:round;stroke-miterlimit:10;" d="
				M79.429,167.355c-6.461,3.247-14.227,4.761-20.945,2.083"/>
			<path style="fill:none;stroke:#3C3930;stroke-width:0.75;stroke-linecap:round;stroke-linejoin:round;stroke-miterlimit:10;" d="
				M121.581,171.601c2.147,1.343,4.838,1.786,7.303,1.204"/>
			<path style="fill:none;stroke:#3C3930;stroke-width:0.75;stroke-linecap:round;stroke-linejoin:round;stroke-miterlimit:10;" d="
				M76.844,171.601c-2.147,1.343-4.838,1.786-7.303,1.204"/>
			<path style="fill:none;stroke:#3C3930;stroke-width:0.75;stroke-linecap:round;stroke-linejoin:round;stroke-miterlimit:10;" d="
				M117.198,171.105c-2.021,3.938-2.615,8.591-1.647,12.911"/>
			<path style="fill:none;stroke:#3C3930;stroke-width:0.75;stroke-linecap:round;stroke-linejoin:round;stroke-miterlimit:10;" d="
				M81.227,171.105c2.021,3.938,2.615,8.591,1.647,12.911"/>
			<path style="fill:none;stroke:#3C3930;stroke-width:0.75;stroke-linecap:round;stroke-linejoin:round;stroke-miterlimit:10;" d="
				M108.853,176.614c-1.633,0.941-1.332,3.725-1.408,6.949"/>
			<path style="fill:none;stroke:#3C3930;stroke-width:0.75;stroke-linecap:round;stroke-linejoin:round;stroke-miterlimit:10;" d="
				M89.572,176.614c1.633,0.941,1.332,3.725,1.408,6.949"/>
			<path style="fill:none;stroke:#3C3930;stroke-width:0.75;stroke-linecap:round;stroke-linejoin:round;stroke-miterlimit:10;" d="
				M102.338,177.499c-0.376,1.94-0.488,3.931-0.33,5.901"/>
			<path style="fill:none;stroke:#3C3930;stroke-width:0.75;stroke-linecap:round;stroke-linejoin:round;stroke-miterlimit:10;" d="
				M96.087,177.499c0.376,1.94,0.488,3.931,0.33,5.901"/>
			<path style="fill:none;stroke:#3C3930;stroke-width:0.75;stroke-linecap:round;stroke-linejoin:round;stroke-miterlimit:10;" d="
				M103.942,121.293c2.064,3.034,6.086,5.426,12.213,5.426"/>
			<path style="fill:none;stroke:#3C3930;stroke-width:0.75;stroke-linecap:round;stroke-linejoin:round;stroke-miterlimit:10;" d="
				M94.484,121.293c-2.064,3.034-6.086,5.426-12.213,5.426"/>
			<path style="fill:none;stroke:#3C3930;stroke-width:0.75;stroke-linecap:round;stroke-linejoin:round;stroke-miterlimit:10;" d="
				M109.676,121.494c1.367,1.12,3.154,1.715,4.92,1.635"/>
			<path style="fill:none;stroke:#3C3930;stroke-width:0.75;stroke-linecap:round;stroke-linejoin:round;stroke-miterlimit:10;" d="
				M88.749,121.494c-1.367,1.12-3.155,1.715-4.92,1.635"/>
			<path style="fill:none;stroke:#3C3930;stroke-width:0.75;stroke-linecap:round;stroke-linejoin:round;stroke-miterlimit:10;" d="
				M133.937,123.18c2.867,2.422,4.847,5.873,5.49,9.571"/>
			<path style="fill:none;stroke:#3C3930;stroke-width:0.75;stroke-linecap:round;stroke-linejoin:round;stroke-miterlimit:10;" d="
				M64.488,123.18c-2.867,2.422-4.847,5.873-5.49,9.571"/>
			<path style="fill:none;stroke:#3C3930;stroke-width:0.75;stroke-linecap:round;stroke-linejoin:round;stroke-miterlimit:10;" d="
				M135.924,121.049c1.625,1.575,2.805,3.603,3.371,5.794"/>
			<path style="fill:none;stroke:#3C3930;stroke-width:0.75;stroke-linecap:round;stroke-linejoin:round;stroke-miterlimit:10;" d="
				M62.501,121.049c-1.625,1.575-2.805,3.603-3.371,5.794"/>
			<path style="fill:none;stroke:#3C3930;stroke-width:0.75;stroke-linecap:round;stroke-linejoin:round;stroke-miterlimit:10;" d="
				M122.197,156.582c2.42,0.4,7.74-1.806,10.721-6.596"/>
			<path style="fill:none;stroke:#3C3930;stroke-width:0.75;stroke-linecap:round;stroke-linejoin:round;stroke-miterlimit:10;" d="
				M76.228,156.582c-2.42,0.4-7.74-1.806-10.721-6.596"/>
			<path style="fill:none;stroke:#3C3930;stroke-width:0.75;stroke-linecap:round;stroke-linejoin:round;stroke-miterlimit:10;" d="
				M126.104,158.13c2.207-0.43,4.256-1.629,5.712-3.342"/>
			<path style="fill:none;stroke:#3C3930;stroke-width:0.75;stroke-linecap:round;stroke-linejoin:round;stroke-miterlimit:10;" d="
				M72.321,158.13c-2.207-0.43-4.256-1.629-5.712-3.342"/>
			<path style="fill:none;stroke:#3C3930;stroke-width:0.75;stroke-linecap:round;stroke-linejoin:round;stroke-miterlimit:10;" d="
				M128.579,159.635c1.802,0.063,3.596-1.011,4.389-2.631"/>
			<path style="fill:none;stroke:#3C3930;stroke-width:0.75;stroke-linecap:round;stroke-linejoin:round;stroke-miterlimit:10;" d="
				M69.846,159.635c-1.802,0.063-3.596-1.011-4.389-2.631"/>
			<path style="fill:none;stroke:#3C3930;stroke-width:0.75;stroke-linecap:round;stroke-linejoin:round;stroke-miterlimit:10;" d="
				M109.484,138.796c1.999-4.183,13.961-1.551,20.24,3.551"/>
			<path style="fill:none;stroke:#3C3930;stroke-width:0.75;stroke-linecap:round;stroke-linejoin:round;stroke-miterlimit:10;" d="
				M88.941,138.796c-1.999-4.183-13.961-1.551-20.24,3.551"/>
			<path style="fill:none;stroke:#3C3930;stroke-width:0.75;stroke-linecap:round;stroke-linejoin:round;stroke-miterlimit:10;" d="
				M131.457,143.704c0.91,0.987,1.571,2.201,1.908,3.501"/>
			<path style="fill:none;stroke:#3C3930;stroke-width:0.75;stroke-linecap:round;stroke-linejoin:round;stroke-miterlimit:10;" d="
				M66.968,143.704c-0.909,0.987-1.571,2.201-1.908,3.501"/>
		</g>
	</g>
	<g>
		<g>
			
				<path style="fill:none;stroke:#3C3930;stroke-width:0.8952;stroke-linecap:round;stroke-linejoin:round;stroke-miterlimit:10;" d="
				M55.978,68.227c4.837,0.885,9.805,1.051,14.69,0.493"/>
			
				<path style="fill:none;stroke:#3C3930;stroke-width:0.8952;stroke-linecap:round;stroke-linejoin:round;stroke-miterlimit:10;" d="
				M49.678,70.523c2.168-0.933,4.132-1.362,6.301-2.295c-1.786-1.271-2.907-3.681-3.477-5.797"/>
		</g>
		<g>
			
				<path style="fill:#A2C675;stroke:#3C3930;stroke-width:0.8952;stroke-linecap:round;stroke-linejoin:round;stroke-miterlimit:10;" d="
				M126.388,177.279c5.799-0.339,13.761,2.739,19.589-6.947c4.115-6.839,5.602-21.774-0.286-29.457
				c-11.761-15.345-54.476-11.659-44.329-37.971c2.682-6.955,15.831-23.907,2.509-29.236c-8.991-3.597-17.582,6.537-26.643,3.932
				c-4.302-1.236-9.326-7.017-9.576-8.147C66.992,66.457,79.345,54.349,96.01,55.36c10.332,0.627,11.526,5.136,14.176,7.759
				c4.135,4.093,20.734,9.965,7.665,36.504c-8.827,17.924,22.971,17.257,37.694,35.176c14.855,18.079,4.639,47.529-15.957,56.141
				c-4.387,1.834-13.446,3.731-18.033,1.887C116.8,190.914,115.592,177.911,126.388,177.279z"/>
			
				<path style="fill:none;stroke:#3C3930;stroke-width:0.8952;stroke-linecap:round;stroke-linejoin:round;stroke-miterlimit:10;" d="
				M80.889,68.116c2.352-3.473,8.006-4.01,10.969-1.041"/>
		</g>
		
			<path style="fill:none;stroke:#3C3930;stroke-width:0.8952;stroke-linecap:round;stroke-linejoin:round;stroke-miterlimit:10;" d="
			M122.714,189.464c7.955,0.488,16.058-2.001,22.367-6.871"/>
		
			<path style="fill:none;stroke:#3C3930;stroke-width:0.8952;stroke-linecap:round;stroke-linejoin:round;stroke-miterlimit:10;" d="
			M149.699,178.486c3.007-2.529,5.495-5.671,7.267-9.178"/>
		
			<path style="fill:none;stroke:#3C3930;stroke-width:0.8952;stroke-linecap:round;stroke-linejoin:round;stroke-miterlimit:10;" d="
			M104.196,102.894c-0.963,2.788-1.677,5.732-1.402,8.669c0.276,2.937,1.673,5.884,4.168,7.457"/>
		
			<path style="fill:none;stroke:#3C3930;stroke-width:0.8952;stroke-linecap:round;stroke-linejoin:round;stroke-miterlimit:10;" d="
			M101.779,70.183c1.561-0.471,2.926-1.56,3.731-2.978"/>
		
			<path style="fill:none;stroke:#3C3930;stroke-width:0.8952;stroke-linecap:round;stroke-linejoin:round;stroke-miterlimit:10;" d="
			M111.832,82.461c-0.832,1.338,0.541,3.256,2.117,3.255c1.576-0.001,2.878-1.428,3.202-2.97c-0.202,1.215,1.156,2.273,2.378,2.113
			c1.221-0.16,2.175-1.18,2.692-2.298"/>
		
			<path style="fill:none;stroke:#3C3930;stroke-width:0.8952;stroke-linecap:round;stroke-linejoin:round;stroke-miterlimit:10;" d="
			M109.277,116.147c0.188,1.306,1.52,2.335,2.831,2.187s2.381-1.447,2.274-2.762c0.973,0.67,2.371,0.649,3.323-0.05
			c0.953-0.699,1.392-2.026,1.045-3.155"/>
		
			<path style="fill:none;stroke:#3C3930;stroke-width:0.8952;stroke-linecap:round;stroke-linejoin:round;stroke-miterlimit:10;" d="
			M128.665,127.702c0.722,1.027,2.178,1.464,3.346,1.004c1.168-0.46,1.936-1.772,1.764-3.015c1.515,1.576,4.619,0.939,5.39-1.106"/>
		
			<path style="fill:none;stroke:#3C3930;stroke-width:0.8952;stroke-linecap:round;stroke-linejoin:round;stroke-miterlimit:10;" d="
			M152.4,143.798c0.151,1.027,0.337,2.127,1.062,2.87c0.725,0.743,2.184,0.833,2.671-0.084c0.109,1.205,0.462,2.471,1.382,3.257
			c0.92,0.786,2.527,0.834,3.216-0.16"/>
	</g>
</g>
<g>
	
		<line style="fill:none;stroke:#3C3930;stroke-width:0.75;stroke-linecap:round;stroke-linejoin:round;stroke-miterlimit:10;" x1="20.106" y1="319.264" x2="32.222" y2="319.264"/>
	
		<line style="fill:none;stroke:#3C3930;stroke-width:0.75;stroke-linecap:round;stroke-linejoin:round;stroke-miterlimit:10;" x1="166.203" y1="319.264" x2="178.319" y2="319.264"/>
</g>
<g id="text">
	<text transform="matrix(1 0 0 1 81.4497 322.2637)" style="fill:#3C3930; font-family:'Cinzel-Bold'; font-size:12px;">death</text>
	<text transform="matrix(1 0 0 1 93.5486 20.1311)" style="fill:#3C3930; font-family:'Cinzel-Bold'; font-size:9px;">xiii</text>
</g>
</svg>
