<?xml version="1.0" encoding="utf-8"?>
<!-- Generator: Adobe Illustrator 27.5.0, SVG Export Plug-In . SVG Version: 6.00 Build 0)  -->
<svg version="1.1" id="Layer_1" xmlns="http://www.w3.org/2000/svg"
    xmlns:xlink="http://www.w3.org/1999/xlink" x="0px" y="0px"
    viewBox="0 0 341.984 304.609" style="enable-background:new 0 0 341.984 304.609;"
    xml:space="preserve">
<g>
	<g>
		<path style="fill:#D09670;" d="M327.913,8.087c-1.189-1.425-3.086-2.157-4.822-2.642c-2.281-0.637-4.687-0.925-7.053-0.87
			c-2.655,0.062-5.225,0.549-7.692,1.359c-3.963-1.138-8.187-0.508-12.185,0.829c-5.155,1.724-10.088,4.596-14.378,7.914
			c-9.005,6.965-15.439,16.56-21.681,25.929c-2.238,3.36-4.506,6.704-6.814,10.02c0.238-0.517,0.477-1.034,0.711-1.553
			c3.057-6.78,6.623-13.319,9.617-20.128c1.237-2.813,3.674-7.811,1.165-10.602c-1.406-1.565-3.86-1.648-5.798-1.503
			c-2.58,0.193-5.092,0.906-7.442,1.975c-10.124,4.605-17.58,14.462-23.35,23.637c-3.91,6.217-7.105,12.84-10.59,19.295
			c-3.219,5.963-6.678,12.143-11.313,17.14c-4.872,5.253-11.652,7.777-18.124,10.481c-6.5,2.716-12.768,5.736-18.983,9.052
			c-11.339,6.049-22.338,12.948-30.45,23.114c-3.305,4.142-7.767,10.123-4.796,15.596c2.365,4.358,7.96,6.843,12.445,8.308
			c6.658,2.176,14.012,2.941,20.983,3.124c7.301,0.191,14.605-0.472,21.808-1.634c13.99-2.256,27.613-6.33,41.313-9.866
			c4.633-1.196,9.27-2.488,13.679-4.37c4.282-1.828,8.611-4.277,11.562-7.966c1.373-1.716,2.257-3.564,2.881-5.651
			c4.801-7.235,9.304-14.667,14.061-21.933c3.116-4.759,6.34-9.448,9.853-13.925c1.448-1.846,2.927-3.674,4.224-5.632
			c1.426-2.154,2.466-4.436,3.468-6.808c4.467-10.571,10.398-20.459,16.743-30c3.052-4.59,6.274-9.072,9.741-13.359
			c1.734-2.145,3.543-4.23,5.412-6.258c1.552-1.685,3.268-3.25,4.663-5.073C328.48,13.85,330.004,10.593,327.913,8.087z"/>
		<path style="fill:#FFE3CB;" d="M326.6,13.827c-0.902,1.795-2.346,3.209-3.703,4.656c-1.834,1.955-3.607,3.966-5.322,6.025
			c-3.302,3.964-6.426,8.068-9.37,12.305c-6.111,8.792-11.898,18.021-16.532,27.683c-2.299,4.794-3.997,9.827-7.123,14.175
			c-3.023,4.204-6.301,8.202-9.23,12.48c-6.048,8.834-11.368,18.132-17.103,27.166c-0.348,0-0.779,0.221-0.884,0.58
			c-0.19,0.652-0.427,1.275-0.698,1.874c-0.872,1.343-1.756,2.678-2.655,4.004c-4.616,5.089-12.407,7.701-18.561,9.479
			c-5.074,1.466-10.219,2.704-15.322,4.064c-6.77,1.805-13.542,3.606-20.381,5.132c-14.076,3.14-28.606,4.955-42.972,2.8
			c-5.802-0.87-11.772-2.145-16.844-5.233c-2.075-1.263-4.178-2.909-5.172-5.195c-1.369-3.147,0.003-6.522,1.693-9.246
			c6.627-10.682,17.667-18.198,28.425-24.224c5.623-3.15,11.348-6.253,17.245-8.858c6.2-2.739,12.615-5.041,18.535-8.377
			c5.212-2.938,8.979-7.695,12.206-12.626c3.756-5.737,6.897-11.824,10.085-17.886c5.48-10.422,11.611-20.882,20.499-28.803
			c3.988-3.554,8.793-6.679,14.19-7.401c1.906-0.255,4.937-0.485,6.109,1.454c0.919,1.52,0.375,3.618-0.106,5.189
			c-1.792,5.843-4.965,11.331-7.611,16.812c-2.119,4.389-4.188,8.871-5.993,13.423c-4.138,5.788-8.419,11.472-12.915,16.985
			c-4.017,4.926-8.123,9.884-12.793,14.213c-4.214,3.907-8.985,6.792-14.397,8.715c-10.328,3.67-21.721,5.471-31.123,11.276
			c-0.738,0.702-1.473,1.408-2.208,2.113c-0.432,0.414-0.864,0.828-1.297,1.241c0.016-0.01,0.031-0.017,0.047-0.029
			c9.166-6.584,20.777-8.588,31.341-11.889c5.175-1.617,10.084-3.632,14.476-6.869c4.648-3.426,8.48-7.74,12.2-12.121
			c4.51-5.313,8.813-10.806,12.971-16.406c0.825-1.218,1.654-2.433,2.504-3.633c1.107-1.564,2.25-3.105,3.452-4.598
			c1.522-2.147,3.034-4.301,4.525-6.466c6.371-9.246,12.124-19.065,20.046-27.116c4.399-4.471,9.485-8.211,15.139-10.943
			c4.505-2.177,9.745-3.861,14.772-3.241c-5.549,2.173-10.529,5.942-14.702,10.122c-3.768,3.775-7.07,8.038-10.31,12.266
			c-3.523,4.596-6.879,9.317-10.132,14.107c-6.269,9.234-11.991,18.763-17.828,28.267c-2.838,4.621-5.888,9.107-9.583,13.093
			c-3.399,3.667-7.191,6.943-11.081,10.076c-7.482,6.027-15.447,11.561-22.058,18.587c-0.06,0.064-0.118,0.13-0.178,0.195
			c0.816-0.351,1.636-0.695,2.458-1.031c11.477-11.093,26.048-18.872,35.894-31.699c3.15-4.103,5.828-8.54,8.465-12.982
			c2.774-4.672,5.621-9.287,8.565-13.854c6.044-9.378,12.307-18.641,19.263-27.372c6.043-7.585,12.773-15.204,22.136-18.628
			c0.585-0.214,1.178-0.406,1.777-0.576c0.042,0.013,0.083,0.029,0.125,0.042c0.366-0.112,0.738-0.208,1.111-0.295
			c-0.029-0.014-0.057-0.029-0.086-0.043c3.648-0.856,7.467-0.892,11.122,0.043c1.803,0.461,3.995,1.173,5.048,2.842
			C327.576,10.979,327.257,12.519,326.6,13.827z"/>
		<path style="fill:#FFE3CB;" d="M252.263,54.278c-1.202,1.493-2.345,3.034-3.452,4.598c-0.85,1.201-1.679,2.415-2.504,3.633
			c-4.159,5.601-8.462,11.093-12.971,16.406c-3.719,4.382-7.551,8.695-12.2,12.121c-0.923,0.68-1.87,1.304-2.836,1.883
			c1.182-0.47,2.34-1.008,3.463-1.62c3.883-2.114,7.286-4.987,10.319-8.185c3.16-3.33,5.942-6.996,8.644-10.701
			c3.036-4.162,6.069-8.326,9.105-12.489c7.825-10.728,15.528-21.559,23.907-31.867c3.869-4.759,7.655-9.628,12.173-13.803
			c1.384-1.28,2.832-2.488,4.334-3.624c-4.965,2.635-9.465,6.054-13.41,10.064c-7.922,8.051-13.675,17.87-20.046,27.116
			C255.297,49.977,253.785,52.131,252.263,54.278z"/>
		<path style="fill:#FFE3CB;" d="M285.52,26.287c-6.956,8.731-13.22,17.994-19.263,27.372c-2.944,4.568-5.791,9.182-8.565,13.854
			c-2.637,4.442-5.315,8.878-8.465,12.982c-3.255,4.241-7.028,7.928-11.033,11.367c6.114-2.68,11.187-7.396,15.407-12.523
			c5.343-6.491,9.581-13.801,13.842-21.02c4.566-7.736,9.46-15.283,14.684-22.593c6.069-8.493,12.8-16.73,21.117-23.128
			c3.882-2.986,8.234-5.165,12.956-6.461c-1.887-0.005-3.774,0.217-5.617,0.649c0.029,0.014,0.057,0.029,0.086,0.043
			c-0.373,0.087-0.745,0.183-1.111,0.295c-0.042-0.013-0.083-0.029-0.125-0.042c-0.598,0.17-1.191,0.362-1.777,0.576
			C298.293,11.083,291.563,18.702,285.52,26.287z"/>
		<path style="fill:#FFE3CB;" d="M195.44,87.809c3.543-1.338,6.957-3.058,10.159-5.08c1.401-0.885,2.791-1.823,4.049-2.905
			c1.595-1.373,3.039-2.918,4.31-4.595c2.409-3.177,4.194-6.757,5.956-10.318c1.982-4.006,4.084-7.959,6.241-11.874
			c2.208-4.008,4.527-7.959,7.082-11.757c4.734-7.036,10.27-13.802,17.415-18.501c2.716-1.786,5.594-3.266,8.568-4.531
			c-0.578,0.027-1.132,0.089-1.614,0.154c-5.397,0.722-10.201,3.847-14.19,7.401c-8.889,7.921-15.019,18.38-20.499,28.803
			c-3.188,6.062-6.329,12.149-10.085,17.886c-3.228,4.931-6.994,9.688-12.206,12.626c-1.862,1.049-3.773,1.996-5.711,2.887
			C195.09,87.939,195.265,87.874,195.44,87.809z"/>
		<path style="fill:#FFE3CB;" d="M326.533,9.359c-0.011,0.002-0.021,0.004-0.032,0.007c-3.119,0.631-6.273,1.147-9.275,2.239
			c-3.16,1.149-6.017,2.962-8.701,4.965c-2.668,1.991-5.155,4.219-7.527,6.551c-2.291,2.251-4.514,4.592-6.633,7.006
			c-4.071,4.637-7.295,9.927-10.681,15.063c-1.671,2.535-3.387,5.044-5.267,7.429c-1.734,2.2-3.609,4.349-5.741,6.175
			c-2.03,1.738-4.304,3.231-6.719,4.376c-2.062,0.978-4.386,1.809-6.704,1.741c-0.522,0.866-1.043,1.732-1.56,2.601
			c-2.637,4.442-5.315,8.878-8.465,12.982c-9.846,12.827-24.417,20.606-35.894,31.699c-0.822,0.336-1.642,0.68-2.458,1.031
			c0.06-0.064,0.118-0.131,0.178-0.195c6.611-7.025,14.576-12.56,22.058-18.587c3.889-3.133,7.682-6.409,11.081-10.076
			c3.695-3.986,6.745-8.472,9.583-13.093c5.837-9.504,11.559-19.033,17.828-28.267c3.252-4.79,6.609-9.511,10.132-14.107
			c3.24-4.227,6.541-8.491,10.31-12.266c4.173-4.18,9.153-7.949,14.702-10.122c-3.937-0.486-8.004,0.444-11.748,1.916
			c-1.604,1.453-3.446,2.667-5.021,4.143c-1.376,1.29-2.584,2.802-3.765,4.269c-1.276,1.585-2.492,3.216-3.691,4.86
			c-1.161,1.592-2.305,3.195-3.47,4.784c-1.183,1.613-2.426,3.171-3.673,4.735c-2.579,3.238-5.094,6.527-7.532,9.872
			c-4.209,5.776-8.141,11.736-11.877,17.827c-2.897,4.724-5.851,9.502-9.681,13.542c-3.574,3.77-8.118,6.879-13.464,7.055
			c-3.561,4.174-7.252,8.253-11.688,11.523c-4.392,3.237-9.301,5.252-14.476,6.869c-10.564,3.301-22.176,5.305-31.341,11.889
			c-0.016,0.011-0.031,0.019-0.047,0.029c0.433-0.413,0.865-0.826,1.297-1.241c0.735-0.706,1.47-1.412,2.208-2.113
			c9.402-5.805,20.795-7.606,31.123-11.276c5.412-1.923,10.182-4.808,14.397-8.715c3.432-3.181,6.559-6.704,9.57-10.303
			c0.059-0.167,0.12-0.333,0.184-0.497c0.055-0.139,0.214-0.156,0.31-0.096c0.917-1.103,1.825-2.21,2.728-3.317
			c4.496-5.513,8.777-11.197,12.915-16.985c1.805-4.552,3.874-9.034,5.992-13.423c2.646-5.481,5.819-10.969,7.611-16.812
			c0.482-1.571,1.025-3.669,0.106-5.189c-1.172-1.94-4.203-1.71-6.109-1.454c-1.45,0.194-2.856,0.566-4.217,1.069
			c1.512,0.457,2.917,1.708,3.151,3.295c0.276,1.874-0.863,3.711-1.826,5.217c-5.812,9.088-9.759,19.143-14.62,28.738
			c-2.387,4.711-4.936,9.422-8.367,13.465c-3.18,3.748-6.955,6.953-11.004,9.725c-2.021,1.383-4.112,2.662-6.247,3.86
			c-2.186,1.227-4.415,2.431-6.705,3.455c-5.022,2.244-10.378,3.621-15.74,4.774c-2.643,0.568-5.301,1.179-7.974,1.581
			c-0.971,0.146-1.947,0.257-2.924,0.347c-5.559,2.514-10.97,5.445-16.287,8.423c-10.758,6.026-21.797,13.543-28.425,24.224
			c-1.69,2.724-3.062,6.098-1.693,9.246c0.994,2.286,3.097,3.931,5.172,5.195c5.072,3.088,11.042,4.363,16.844,5.233
			c14.366,2.155,28.896,0.34,42.972-2.8c6.839-1.525,13.612-3.327,20.381-5.132c5.103-1.36,10.248-2.598,15.322-4.064
			c6.154-1.778,13.944-4.39,18.561-9.479c0.899-1.325,1.783-2.661,2.655-4.004c0.271-0.6,0.508-1.222,0.698-1.875
			c0.104-0.359,0.536-0.58,0.884-0.58c5.735-9.034,11.055-18.332,17.103-27.166c2.929-4.278,6.207-8.276,9.23-12.48
			c3.126-4.347,4.824-9.381,7.123-14.175c4.633-9.662,10.421-18.891,16.532-27.683c2.944-4.236,6.069-8.34,9.37-12.305
			c1.715-2.059,3.489-4.071,5.322-6.025c1.358-1.447,2.802-2.86,3.704-4.656c0.657-1.308,0.976-2.848,0.152-4.155
			C326.684,9.563,326.611,9.46,326.533,9.359z"/>
		<path style="fill:#FFE3CB;" d="M262.581,19.446c-0.661,4.32-2.236,8.336-4.228,12.205c-1.151,2.236-2.481,4.37-3.73,6.552
			c-1.302,2.276-2.574,4.569-3.854,6.857c-2.537,4.534-5.111,9.056-8.009,13.372c-1.497,2.23-3.135,4.375-4.712,6.549
			c-1.518,2.093-3.05,4.176-4.644,6.212c-1.523,1.945-3.068,3.893-4.795,5.662c-1.533,1.571-3.192,3.015-4.931,4.353
			c-3.65,2.809-7.637,5.139-11.659,7.367c-1.335,0.74-2.658,1.519-4.042,2.164c-0.968,0.452-1.951,0.872-2.931,1.295
			c-2.716,1.17-5.438,2.329-8.122,3.572c-2.718,1.258-5.437,2.574-7.966,4.186c-0.965,0.615-1.922,1.276-2.738,2.083
			c-0.359,0.355-0.756,0.787-0.969,1.277c7.898-3.372,16.597-5.097,24.648-7.958c5.412-1.923,10.182-4.808,14.397-8.715
			c3.432-3.181,6.559-6.704,9.57-10.303c0.059-0.167,0.12-0.333,0.184-0.497c0.055-0.139,0.214-0.156,0.31-0.096
			c0.917-1.103,1.825-2.21,2.728-3.317c4.496-5.513,8.777-11.197,12.915-16.985c1.805-4.552,3.874-9.034,5.992-13.423
			c2.646-5.481,5.819-10.969,7.611-16.812c0.482-1.571,1.025-3.669,0.106-5.189c-0.266-0.441-0.632-0.765-1.055-1.007
			C262.632,19.048,262.611,19.248,262.581,19.446z"/>
		<path style="fill:#FFE3CB;" d="M292.978,57.197c-2.542,0.892-5.062,1.851-7.534,2.923c-2.418,1.049-4.714,2.254-7.004,3.554
			c-4.697,2.666-9.371,5.378-13.914,8.302c-3.72,2.394-7.158,5.743-11.479,7.025c-0.169,0.05-0.294-0.14-0.219-0.284
			c2.244-4.289,4.432-8.678,6.088-13.246c-0.409,0.68-0.819,1.36-1.225,2.043c-2.637,4.442-5.315,8.878-8.465,12.982
			c-9.846,12.827-24.417,20.606-35.894,31.699c-0.822,0.336-1.642,0.68-2.458,1.031c0.06-0.064,0.118-0.131,0.178-0.195
			c6.611-7.025,14.576-12.56,22.058-18.587c3.889-3.133,7.682-6.409,11.081-10.076c3.695-3.986,6.745-8.472,9.583-13.093
			c1.555-2.531,3.101-5.064,4.652-7.592c-2.574,2.646-5.087,5.349-7.522,8.123c-2.66,3.03-5.336,6.016-8.266,8.792
			c-5.135,4.865-10.799,9.192-16.925,12.735c-4.61,2.666-9.511,4.804-14.461,6.754c-4.812,1.896-9.773,3.604-14.878,4.505
			c-3.141,0.554-7.227,1.075-10.278-0.432c-3.803,1.464-7.451,3.248-10.777,5.637c-0.016,0.011-0.031,0.019-0.047,0.029
			c0.433-0.413,0.865-0.826,1.297-1.241c0.735-0.706,1.47-1.412,2.208-2.113c0.488-0.301,0.982-0.591,1.48-0.872
			c-0.207-1.283-0.174-2.597-0.032-3.886c0.296-2.687,1.022-5.315,1.859-7.883c-0.318,0.034-0.635,0.07-0.953,0.099
			c-5.559,2.514-10.97,5.445-16.287,8.423c-10.758,6.026-21.797,13.543-28.425,24.224c-1.69,2.724-3.062,6.098-1.693,9.246
			c0.994,2.286,3.097,3.931,5.172,5.195c5.072,3.088,11.042,4.363,16.844,5.233c14.366,2.155,28.896,0.34,42.972-2.8
			c6.839-1.525,13.612-3.327,20.381-5.132c5.103-1.36,10.248-2.598,15.322-4.064c6.154-1.778,13.944-4.39,18.561-9.479
			c0.899-1.325,1.783-2.661,2.655-4.004c0.271-0.6,0.508-1.222,0.698-1.875c0.104-0.359,0.536-0.58,0.884-0.58
			c5.735-9.034,11.055-18.332,17.103-27.166c2.929-4.278,6.207-8.276,9.23-12.48c3.126-4.347,4.824-9.381,7.123-14.175
			c1.348-2.811,2.796-5.584,4.319-8.321C294.984,56.507,293.979,56.846,292.978,57.197z"/>
	</g>
	<g>
		<path style="fill:#D09670;" d="M336.73,18.561c-1.201-7.456-11.046-7.3-16.618-5.874c-4.302,1.101-8.078,3.619-11.473,6.413
			c-4.43,3.647-8.247,7.96-11.726,12.507c-3.539,4.625-6.781,9.484-9.613,14.573c-1.504,2.703-2.967,5.434-4.689,8.007
			c-1.842,2.754-4.098,5.177-6.361,7.586c-4.673,4.975-9.611,9.692-14.358,14.596c-4.486,4.634-8.909,9.338-13.731,13.63
			c-4.447,3.958-9.323,7.289-14.352,10.441c-9.228,3.025-18.719,5.028-28.141,7.341c-8.852,2.173-17.972,2.924-26.885,4.793
			c-0.803,0.168-1.605,0.347-2.405,0.536c1.181-1.487,2.357-2.975,3.538-4.45c3.804-4.748,7.724-9.44,12.24-13.533
			c4.576-4.147,9.629-7.727,14.685-11.257c5.003-3.493,10.045-6.95,14.733-10.864c4.416-3.687,8.815-7.782,11.909-12.677
			c2.939-4.651,4.142-10.119,1.812-15.294c-0.985-2.188-2.428-4.409-4.696-5.419c-1.908-0.849-4.022-0.603-5.951,0.042
			c-2.212,0.74-4.236,1.962-6.216,3.173c-2.428,1.484-4.899,2.825-7.411,4.161c-6.062,3.224-12.035,6.628-18.247,9.561
			c-12.413,5.86-25.684,9.578-38.717,13.762c-12.38,3.975-24.443,8.648-35.972,14.692c-11.428,5.992-22.297,13.054-32.386,21.1
			c-9.482,7.562-18.673,16.078-24.466,26.895c-2.975,5.555-4.555,11.57-5.734,17.73c-0.654,3.418-1.132,6.868-1.42,10.336
			c-0.039,0.47-0.087,0.939-0.139,1.409c-2.388,6.096-4.854,12.164-7.252,18.253c-3.888,9.875-7.875,19.71-11.797,29.572
			c-3.898,9.801-7.638,19.651-11.079,29.622c-3.382,9.802-6.457,19.708-10.095,29.421c-2.953,7.885-6.104,15.731-8.428,23.822
			c-0.034,0.753-0.069,1.505-0.163,2.252c0.179,0.187,0.369,0.364,0.568,0.528c0.01,0.008,0.02,0.015,0.029,0.022
			c0.003-0.009,0.006-0.019,0.009-0.028c5.195,2.755,14.452,3.399,17.583,3.629c5.235,0.383,10.519,0.434,15.765,0.463
			c11.892,0.066,23.887-0.314,35.735-1.361c6.862-0.606,13.724-1.9,20.333-3.967c0.535-0.214,1.071-0.425,1.607-0.637
			c0.105-0.938,0.215-1.876,0.396-2.797c0.07-0.723,0.14-1.447,0.211-2.17c1.142-11.662,2.265-23.327,3.566-34.972
			c1.275-11.406,2.757-22.779,4.466-34.127c1.254-8.324,1.953-16.729,3.527-25.005c0.237-1.248,0.493-2.514,0.774-3.789
			c2.629-1.3,5.674-2.012,8.346-2.727c6.757-1.809,13.612-3.215,20.452-4.668c6.754-1.435,13.456-3.086,20.202-4.551
			c6.754-1.467,13.531-2.83,20.256-4.431c13.77-3.278,27.098-8.001,40.694-11.878c5.669-1.617,12.04-2.592,17.164-5.653
			c2.522-1.506,4.491-3.746,6.873-5.444c2.279-1.625,4.817-2.848,7.08-4.498c2.543-1.855,4.246-4.231,5.677-7.009
			c1.566-3.039,3.084-5.997,4.897-8.902c2.049-3.283,4.097-6.569,6.196-9.82c1.986-3.075,4.423-5.851,6.207-9.057
			c0.026-0.047,0.046-0.092,0.06-0.134c0.535-0.678,1.547-1.836,1.722-2.742c3.91-4.401,7.831-8.793,11.752-13.184
			c4.443-4.975,8.945-9.885,12.97-15.21c3.941-5.214,7.553-10.665,11.195-16.09c3.638-5.42,7.66-10.636,10.991-16.252
			c1.683-2.838,3.215-5.761,4.715-8.699c1.4-2.741,2.669-5.599,4.289-8.219C333.986,27.918,337.568,23.76,336.73,18.561z"/>
		<path style="fill:#FFE3CB;" d="M334.225,24.675c-1.125,2.552-2.909,4.75-4.356,7.116c-1.658,2.71-2.963,5.659-4.41,8.485
			c-2.917,5.697-6.161,11.039-9.848,16.268c-3.615,5.128-7.033,10.391-10.574,15.569c-3.617,5.289-7.359,10.509-11.576,15.34
			c-4.523,5.183-9.159,10.269-13.739,15.401c-9.027,10.113-18.069,20.228-26.782,30.614c-1.405,1.675-2.792,3.409-4.204,5.133
			c-1.193,1.71-2.377,3.425-3.541,5.154c0.555-0.245,1.11-0.488,1.668-0.726c0.474-0.541,0.942-1.087,1.404-1.636
			c6.82-8.1,13.645-16.178,20.605-24.154c-0.01,0.021-0.023,0.042-0.033,0.063c-0.133,0.281-0.035,0.441,0.152,0.505
			c-0.578,0.774-1.155,1.55-1.71,2.341c-1.999,2.852-3.871,5.802-5.821,8.688c-1.821,2.695-3.672,5.357-5.139,8.266
			c-1.31,2.597-2.481,5.426-4.555,7.526c-2.001,2.026-4.643,3.336-7.039,4.821c-2.523,1.564-4.587,3.594-6.909,5.416
			c-2.517,1.976-5.534,3.014-8.565,3.936c-3,0.912-6.049,1.649-9.066,2.5c-13.505,3.811-26.717,8.56-40.371,11.865
			c-6.72,1.627-13.497,3.003-20.253,4.47c-6.835,1.485-13.624,3.171-20.46,4.653c-7.692,1.667-15.409,3.265-22.983,5.421
			c-0.011,0.003-0.023,0.007-0.034,0.01c-0.61,0.219-1.219,0.441-1.825,0.674c-1.686,0.647-3.393,1.321-4.968,2.211
			c-0.678,0.383-1.327,0.817-1.916,1.327c-0.308,0.267-0.631,0.549-0.889,0.866c-0.255,0.314-0.486,0.657-0.708,0.994
			c-0.224,0.34-0.431,0.691-0.618,1.052c-0.012,0.023-0.02,0.046-0.031,0.069c0.749-1.065,1.687-1.934,2.747-2.655
			c-1.821,7.839-2.626,15.891-3.671,23.857c-1.435,10.938-3.164,21.821-4.391,32.789c-1.32,11.802-2.422,23.626-3.515,35.451
			c-0.269,2.912-0.547,5.822-0.827,8.733c-5.232,1.67-10.619,2.859-16.073,3.586c-5.565,0.741-11.207,0.957-16.81,1.246
			c-5.701,0.294-11.408,0.504-17.117,0.58c-6.122,0.081-12.27,0.045-18.389-0.228c-5.294-0.236-10.68-0.62-15.829-1.945
			c-1.55-0.399-3.46-1.001-5.035-1.906c2.385-7.404,5.19-14.672,7.986-21.928c3.691-9.579,6.858-19.315,10.19-29.021
			c6.833-19.901,14.799-39.351,22.36-58.979c2.372-6.158,4.622-12.35,6.818-18.563c-0.058,0.673-0.102,1.347-0.114,2.023
			c-0.023,1.289,0.062,2.643,0.517,3.844c0.014-0.223,0.028-0.447,0.045-0.67c0.147-1.911,0.41-3.811,0.709-5.704
			c0.154-0.974,0.318-1.946,0.481-2.919c0.018-0.107,0.037-0.214,0.056-0.322c0.071-0.561,0.142-1.121,0.211-1.681
			c0.046-0.132,0.091-0.264,0.137-0.395c0.006-0.039,0.013-0.078,0.019-0.117c0.14-0.961,0.257-1.945,0.397-2.928
			c-0.067,0.176-0.133,0.353-0.2,0.53c0.764-5.998,2.005-12.085,3.985-17.779c3.934-11.315,12.539-20.666,21.489-28.325
			c18.802-16.09,40.59-28.58,63.932-36.776c12.285-4.313,24.889-7.677,37.073-12.287c6.153-2.328,12.104-5.056,17.925-8.119
			c5.448-2.867,11.023-5.646,16.325-8.771c2.026-1.195,3.981-2.524,6.095-3.565c1.874-0.923,4.068-1.778,6.175-1.206
			c2.702,0.734,4.371,3.606,5.281,6.055c1.01,2.72,1.079,5.634,0.225,8.405c-1.664,5.396-5.903,9.747-9.917,13.526
			c-4.335,4.08-9.153,7.603-14.017,11.02c-4.806,3.376-9.687,6.656-14.3,10.296c-4.499,3.55-8.6,7.472-12.353,11.803
			c-2.775,3.203-5.403,6.534-8.039,9.856c-0.132,0.405-0.303,0.799-0.493,1.175c-0.49,0.97-1.123,1.863-1.799,2.711
			c-1.381,1.734-2.975,3.288-4.595,4.794c-0.39,0.363-0.78,0.725-1.169,1.088c-1.948,2.202-3.972,4.338-6.129,6.357
			c-0.605,0.567-1.223,1.12-1.848,1.666c-0.981,1.087-1.942,2.191-2.881,3.314c-0.341,0.409-0.676,0.823-1.012,1.236
			c7.606-5.192,13.575-12.176,19.295-19.323c5.288-1.254,10.676-2.083,16.088-2.891c9.278-1.385,18.339-3.516,27.458-5.692
			c3.313-0.791,6.636-1.609,9.915-2.561c-0.035,0.02-0.07,0.038-0.105,0.058c0.984-0.342,1.968-0.683,2.94-1.056
			c0.744-0.285,1.486-0.584,2.204-0.93c0.726-0.35,1.446-0.713,2.162-1.082c0.41-0.212,0.82-0.426,1.228-0.642
			c0.19-0.12,0.38-0.24,0.569-0.361c5.26-3.383,10.102-7.152,14.659-11.439c4.558-4.288,8.799-8.888,13.196-13.337
			c4.617-4.673,9.344-9.241,13.771-14.098c2.033-2.23,3.933-4.511,5.553-7.062c1.619-2.549,3.026-5.222,4.5-7.855
			c2.796-4.996,6.043-9.775,9.547-14.302c3.56-4.598,7.53-8.986,12.173-12.514c3.308-2.513,6.772-4.496,10.887-5.23
			c3.243-0.579,7.124-0.682,10.082,0.996C335.517,16.798,335.774,21.16,334.225,24.675z"/>
		<path style="fill:#FFE3CB;" d="M13.334,281.666c0.917-2.046,1.63-4.191,2.409-6.292c1.648-4.444,3.119-8.945,4.693-13.414
			c1.575-4.472,3.163-8.938,4.758-13.403c3.193-8.936,6.372-17.871,9.39-26.868c2.995-8.928,5.953-17.869,9.189-26.714
			c2.937-8.029,5.212-16.395,9.154-24.016c0.064-0.124,0.271-0.128,0.334,0c1.077,2.186,1.656,4.574,2.44,6.87
			c0.428,1.252,0.92,2.537,1.592,3.701c-0.17-0.765-0.325-1.533-0.456-2.306c-1.262-7.441-0.832-15.115,0.623-22.495
			c1.524-7.734,4.192-15.259,7.826-22.252c3.513-6.759,7.975-12.956,13.501-18.213c6.468-6.152,13.922-11.172,21.401-15.996
			c3.879-2.502,7.748-5.025,11.752-7.324c4.106-2.358,8.312-4.541,12.584-6.583c8.542-4.082,17.343-7.594,26.218-10.879
			c9.037-3.345,18.149-6.483,27.225-9.72c8.917-3.181,17.861-6.391,26.286-10.747c3.59-1.856,6.971-4,10.379-6.162
			c2.431-1.542,4.96-2.962,7.637-4.034c2.434-0.975,5.185-1.776,7.828-1.348c1.263,0.204,2.326,0.732,3.195,1.491
			c-0.98-1.882-2.428-3.646-4.462-4.198c-2.108-0.572-4.302,0.283-6.175,1.206c-2.114,1.041-4.068,2.37-6.095,3.565
			c-5.302,3.126-10.877,5.905-16.325,8.771c-5.82,3.063-11.772,5.791-17.925,8.119c-12.184,4.61-24.788,7.973-37.073,12.287
			c-23.342,8.196-45.13,20.686-63.932,36.776c-8.951,7.66-17.555,17.01-21.489,28.325c-1.98,5.694-3.22,11.781-3.985,17.779
			c0.067-0.176,0.133-0.353,0.2-0.53c-0.14,0.983-0.257,1.967-0.397,2.928c-0.006,0.039-0.013,0.078-0.019,0.117
			c-0.046,0.132-0.091,0.264-0.137,0.395c-0.069,0.56-0.14,1.121-0.211,1.681c-0.018,0.107-0.038,0.214-0.056,0.322
			c-0.163,0.972-0.326,1.945-0.481,2.919c-0.299,1.892-0.563,3.792-0.709,5.704c-0.017,0.223-0.031,0.446-0.045,0.67
			c-0.455-1.201-0.54-2.554-0.517-3.844c0.012-0.676,0.056-1.35,0.114-2.023c-2.196,6.213-4.446,12.406-6.818,18.563
			c-7.561,19.628-15.527,39.079-22.36,58.979c-3.332,9.706-6.5,19.442-10.19,29.021c-2.796,7.256-5.601,14.524-7.986,21.928
			c0.382,0.219,0.784,0.42,1.195,0.605c0.827-2.887,2.177-5.644,3.489-8.318C11.724,285.035,12.57,283.37,13.334,281.666z"/>
		<path style="fill:#FFE3CB;" d="M231.373,102.603c-0.973,0.372-1.956,0.714-2.94,1.056c0.035-0.02,0.07-0.039,0.105-0.058
			c-3.28,0.952-6.602,1.771-9.915,2.561c-9.119,2.176-18.18,4.307-27.458,5.692c-5.412,0.808-10.8,1.637-16.088,2.891
			c-0.214,0.268-0.43,0.535-0.645,0.802c4.827-0.75,9.826-0.318,14.588-1.542c7.453-1.915,15.168-2.862,22.753-4.114
			c7.038-1.162,14.127-2.305,20.947-4.447c3.254-1.022,6.517-2.232,9.389-4.098c2.82-1.832,5.253-4.179,7.564-6.604
			c2.415-2.533,4.789-5.09,7.275-7.555c2.814-2.789,5.644-5.56,8.422-8.385c5.417-5.509,10.546-11.308,15.452-17.276
			c4.745-5.772,9.193-11.786,13.16-18.121c3.947-6.303,8.459-12.053,13.726-17.312c4.222-4.215,8.917-8.08,14.029-11.168
			c0.851-0.514,1.737-1.022,2.649-1.502c-0.879,0.064-1.742,0.18-2.565,0.327c-4.115,0.735-7.579,2.717-10.887,5.23
			c-4.644,3.528-8.614,7.916-12.173,12.514c-3.504,4.527-6.75,9.305-9.547,14.301c-1.474,2.633-2.881,5.306-4.5,7.855
			c-1.62,2.551-3.52,4.832-5.553,7.062c-4.427,4.856-9.154,9.425-13.771,14.098c-4.396,4.449-8.638,9.049-13.196,13.337
			c-4.557,4.288-9.399,8.056-14.659,11.439c-0.189,0.122-0.379,0.241-0.569,0.361c-0.409,0.215-0.818,0.43-1.228,0.642
			c-0.716,0.369-1.436,0.732-2.162,1.082C232.858,102.019,232.117,102.317,231.373,102.603z"/>
		<path style="fill:#FFE3CB;" d="M331.903,14.747c-0.441-0.25-0.903-0.456-1.38-0.631c-0.208,0.814-0.552,1.603-0.819,2.188
			c-1.027,2.252-2.395,4.228-4.288,5.832c-2.958,2.505-6.486,4.191-9.695,6.331c-3.4,2.267-6.131,5.286-8.737,8.405
			c-5.521,6.609-10.134,13.921-14.683,21.214c-4.53,7.263-9.105,14.502-13.744,21.695c-4.777,7.406-9.829,14.667-15.683,21.27
			c-2.723,3.071-5.586,5.945-8.838,8.457c-2.952,2.28-6.102,4.296-9.372,6.086c-13.408,7.337-28.491,10.967-43.549,12.907
			c-7.539,0.971-15.175,0.561-22.754,0.783c-7.461,0.219-15.355,0.856-22.007,4.554c-0.088,0.049-0.166,0.029-0.218-0.021
			c-0.119,0.083-0.234,0.168-0.354,0.25c0.098-0.12,0.197-0.239,0.294-0.36c-0.013-0.07,0.009-0.149,0.082-0.204
			c0.071-0.053,0.143-0.106,0.215-0.159c0.14-0.171,0.279-0.344,0.42-0.513c0.939-1.123,1.9-2.227,2.881-3.314
			c0.625-0.546,1.243-1.1,1.848-1.666c2.157-2.02,4.181-4.155,6.129-6.357c0.389-0.363,0.779-0.726,1.169-1.088
			c1.621-1.507,3.215-3.061,4.595-4.794c0.675-0.848,1.309-1.742,1.799-2.712c0.19-0.376,0.361-0.77,0.493-1.175
			c2.636-3.322,5.264-6.652,8.039-9.856c3.752-4.331,7.854-8.253,12.353-11.803c4.614-3.64,9.494-6.92,14.3-10.296
			c4.863-3.416,9.682-6.939,14.017-11.02c4.014-3.779,8.253-8.13,9.917-13.526c0.855-2.771,0.785-5.685-0.225-8.405
			c-0.844-2.274-2.345-4.91-4.718-5.863c1.567,5.626-1.596,11.106-5.517,15.153c-5.06,5.222-11.562,9.182-18.242,11.953
			c-3.828,1.587-7.764,2.891-11.643,4.343c-3.993,1.495-7.768,3.296-11.536,5.281c-7.966,4.199-15.918,8.425-23.804,12.773
			c-15.368,8.475-30.794,17.29-44.992,27.645c-6.538,4.768-12.657,10.3-17.207,17.041c-4.914,7.279-7.731,15.577-11.122,23.605
			c-2.756,6.526-6.279,13.635-12.188,17.89c-2.313,1.666-5.092,2.738-7.977,2.457c-3.309-0.322-6.125-2.224-8.485-4.456
			c0.821,8.008,3.357,16.959,11.031,20.914c0.075,0.039,0.111,0.14,0.089,0.219c-2.876,10.367-5.558,20.786-8.184,31.219
			c-4.498,17.869-8.67,35.858-14.255,53.429c-2,6.293-3.918,12.805-7.991,18.107c2.703,0.02,5.406,0.009,8.104-0.026
			c5.709-0.075,11.415-0.286,17.117-0.58c5.603-0.289,11.245-0.505,16.81-1.246c5.454-0.727,10.842-1.916,16.073-3.586
			c0.281-2.911,0.558-5.822,0.827-8.733c1.093-11.824,2.195-23.649,3.515-35.451c1.227-10.968,2.955-21.851,4.391-32.789
			c1.046-7.966,1.851-16.017,3.671-23.857c-1.061,0.721-1.998,1.59-2.747,2.655c0.011-0.023,0.019-0.047,0.031-0.069
			c0.188-0.361,0.395-0.712,0.618-1.052c0.223-0.338,0.453-0.68,0.708-0.994c0.258-0.317,0.581-0.599,0.889-0.866
			c0.59-0.51,1.238-0.944,1.916-1.327c1.575-0.89,3.283-1.564,4.968-2.211c0.605-0.232,1.214-0.455,1.824-0.674
			c0.011-0.003,0.023-0.007,0.034-0.01c7.574-2.157,15.291-3.754,22.983-5.421c6.836-1.482,13.625-3.168,20.46-4.653
			c6.756-1.467,13.533-2.844,20.253-4.47c13.654-3.305,26.866-8.055,40.371-11.865c3.017-0.851,6.066-1.588,9.066-2.5
			c3.032-0.922,6.049-1.961,8.565-3.936c2.322-1.823,4.385-3.852,6.909-5.416c2.395-1.485,5.038-2.796,7.039-4.821
			c2.074-2.1,3.245-4.93,4.555-7.526c1.467-2.909,3.318-5.571,5.139-8.266c1.95-2.886,3.822-5.837,5.821-8.688
			c0.555-0.791,1.132-1.567,1.71-2.341c-0.186-0.064-0.284-0.223-0.152-0.504c0.01-0.022,0.023-0.042,0.033-0.063
			c-6.96,7.976-13.785,16.054-20.605,24.154c-0.462,0.549-0.93,1.094-1.404,1.636c-0.558,0.238-1.113,0.481-1.668,0.726
			c1.164-1.729,2.348-3.445,3.541-5.154c1.412-1.724,2.799-3.458,4.205-5.133c8.714-10.386,17.755-20.501,26.782-30.614
			c4.58-5.132,9.216-10.219,13.739-15.401c4.217-4.832,7.959-10.052,11.576-15.34c3.541-5.178,6.959-10.441,10.574-15.569
			c3.686-5.229,6.931-10.571,9.848-16.268c1.447-2.826,2.753-5.775,4.41-8.485c1.447-2.366,3.232-4.564,4.356-7.116
			C335.774,21.16,335.517,16.798,331.903,14.747z"/>
		<path style="fill:#FFE3CB;" d="M232.866,49.665c-0.811,3.795-2.831,7.254-5.154,10.317c-5.045,6.65-11.72,11.992-18.449,16.844
			c-3.631,2.618-7.333,5.139-11.109,7.542c-4.933,3.139-9.95,6.163-14.669,9.623c-2.38,1.745-4.681,3.604-6.824,5.636
			c-1.055,1-2.099,2.029-3.016,3.158c-0.963,1.187-1.88,2.41-2.77,3.653c-3.48,4.86-6.544,10.018-10.295,14.682
			c-7.248,9.015-16.995,15.475-24.986,23.747c2.077-1.477,4.294-2.755,6.533-3.967c4.941-2.676,10.022-5.088,14.739-8.154
			c0.916-1.094,1.853-2.17,2.808-3.229c0.625-0.546,1.243-1.1,1.848-1.666c2.157-2.02,4.181-4.155,6.129-6.357
			c0.389-0.363,0.779-0.726,1.169-1.088c1.621-1.507,3.215-3.061,4.595-4.794c0.675-0.848,1.309-1.742,1.799-2.712
			c0.19-0.376,0.361-0.77,0.493-1.175c2.636-3.322,5.264-6.652,8.039-9.856c3.752-4.331,7.854-8.253,12.353-11.803
			c4.614-3.64,9.494-6.92,14.3-10.296c4.863-3.416,9.682-6.939,14.017-11.02c4.014-3.779,8.253-8.13,9.917-13.526
			c0.855-2.771,0.785-5.685-0.225-8.405c-0.271-0.73-0.611-1.497-1.024-2.234C233.299,46.259,233.228,47.971,232.866,49.665z"/>
		<path style="fill:#FFE3CB;" d="M331.903,14.747c-0.155-0.088-0.317-0.165-0.477-0.243c-0.019,0.667-0.063,1.334-0.141,2
			c-1.105,9.48-8.113,16.816-13.758,23.994c-7.544,9.593-14.174,19.808-21.038,29.886c-6.589,9.675-13.517,19.142-20.664,28.413
			c-7.148,9.274-14.609,18.325-22.635,26.856c-3.963,4.212-8.053,8.349-12.341,12.232c-2.105,1.906-4.332,3.675-6.624,5.351
			c-2.342,1.712-4.766,3.588-7.363,4.893c-4.728,2.375-9.915,2.991-15.127,3.314c-2.89,0.179-5.785,0.318-8.655,0.717
			c-2.911,0.405-5.731,1.297-8.483,2.311c-5.673,2.091-11.124,4.651-16.926,6.396c-6.207,1.867-12.454,3.597-18.711,5.288
			c-6.215,1.679-12.442,3.32-18.653,5.013c-5.834,1.59-11.614,3.423-17.471,4.919c-8.821,2.253-18.959,3.756-25.362,10.884
			c-2.265,2.522-4.067,5.493-5.62,8.542c-0.35,2.22,0.054,4.421,0.641,6.575c0.652,2.391,1.495,4.743,1.848,7.205
			c0.339,2.362-0.006,4.71-0.359,7.052c-0.774,5.134-2.089,10.172-3.555,15.147c-2.975,10.093-6.598,19.991-8.633,30.339
			c-2.202,11.194-3.483,22.55-4.264,33.925c-0.026,0.385-0.048,0.771-0.073,1.156c0.647-0.073,1.293-0.15,1.938-0.236
			c5.454-0.727,10.842-1.916,16.073-3.586c0.281-2.911,0.558-5.822,0.827-8.733c1.093-11.824,2.195-23.649,3.515-35.451
			c1.227-10.968,2.955-21.851,4.391-32.789c1.046-7.966,1.851-16.017,3.671-23.857c-1.061,0.721-1.998,1.59-2.747,2.655
			c0.011-0.023,0.019-0.047,0.031-0.069c0.188-0.361,0.395-0.712,0.618-1.052c0.223-0.338,0.453-0.68,0.708-0.994
			c0.258-0.317,0.581-0.599,0.889-0.866c0.59-0.51,1.238-0.944,1.916-1.327c1.575-0.89,3.283-1.564,4.968-2.211
			c0.605-0.232,1.214-0.455,1.824-0.674c0.011-0.003,0.023-0.007,0.034-0.01c7.574-2.157,15.291-3.754,22.983-5.421
			c6.836-1.482,13.625-3.168,20.46-4.653c6.756-1.467,13.533-2.844,20.253-4.47c13.654-3.305,26.866-8.055,40.371-11.865
			c3.017-0.851,6.066-1.588,9.066-2.5c3.032-0.922,6.049-1.961,8.565-3.936c2.322-1.823,4.385-3.852,6.909-5.416
			c2.395-1.485,5.038-2.796,7.039-4.821c2.074-2.1,3.245-4.93,4.555-7.526c1.467-2.909,3.318-5.571,5.139-8.266
			c1.95-2.886,3.822-5.837,5.821-8.688c0.555-0.791,1.132-1.567,1.71-2.341c-0.186-0.064-0.284-0.223-0.152-0.504
			c0.01-0.022,0.023-0.042,0.033-0.063c-6.96,7.976-13.785,16.054-20.605,24.154c-0.462,0.549-0.93,1.094-1.404,1.636
			c-0.558,0.238-1.113,0.481-1.668,0.726c1.164-1.729,2.348-3.445,3.541-5.154c1.412-1.724,2.799-3.458,4.205-5.133
			c8.714-10.386,17.755-20.501,26.782-30.614c4.58-5.132,9.216-10.219,13.739-15.401c4.217-4.832,7.959-10.052,11.576-15.34
			c3.541-5.178,6.959-10.441,10.574-15.569c3.686-5.229,6.931-10.571,9.848-16.268c1.447-2.826,2.753-5.775,4.41-8.485
			c1.447-2.366,3.232-4.564,4.356-7.116C335.774,21.16,335.517,16.798,331.903,14.747z"/>
		<path style="fill:#D09670;" d="M238.221,147.451c-1.871-0.32-3.596,1.136-4.98,2.2c-2.268,1.745-4.622,3.584-7.532,3.994
			c-3.091,0.436-6.242,0.455-9.342,0.87c-3.31,0.443-6.556,1.089-9.761,2.035c-0.655,0.194-1.028,1.33-0.075,1.152
			c3.053-0.571,6.135-1.039,9.224-1.364c3.04-0.32,6.107-0.433,9.14-0.799c2.901-0.35,4.955-1.734,7.209-3.503
			c1.72-1.351,3.537-3.825,5.859-4.045C238.166,147.972,238.606,147.517,238.221,147.451z"/>
	</g>
</g>
</svg>